<?xml version="1.0" standalone="no"?>
<!DOCTYPE svg PUBLIC "-//W3C//DTD SVG 1.1//EN" "http://www.w3.org/Graphics/SVG/1.1/DTD/svg11.dtd" >
<!--
Created with mf2outline.
-->
<svg xmlns="http://www.w3.org/2000/svg" xmlns:xlink="http://www.w3.org/1999/xlink" version="1.1">
<metadata>
Created by FontForge 20170812 at Sun Jul  3 10:47:09 2022
 By app
Copyright (c) 2022, Metaflop (http://www.metaflop.com), Simon Egli, Marco Mueller, Alexis Reigel, with Reserved Font Name Adjuster. Dual licensed under the GPL v3 (http://www.gnu.org/copyleft/gpl.html) and the OFL v1.1 (http://scripts.sil.org/OFL_web).
</metadata>
<defs>
<font id="Adjuster-etHScEML7r" horiz-adv-x="351" >
  <font-face 
    font-family="Adjuster"
    font-weight="500"
    font-stretch="normal"
    units-per-em="1000"
    panose-1="2 0 5 3 0 0 0 0 0 0"
    ascent="800"
    descent="-200"
    x-height="509"
    cap-height="1010"
    bbox="-329 -512.128 617.09 1428.13"
    underline-thickness="50"
    underline-position="-100"
    unicode-range="U+0020-FB04"
  />
    <missing-glyph />
    <glyph glyph-name="fi" unicode="fi" horiz-adv-x="278" 
d="M207 512c4 0 20 -13 20 -21v-500c0 -4 -5 -3 -11 2s-11 12 -11 16v479h-140v-497c0 -4 -5 -3 -11 2s-11 12 -11 16v835l68 166c0 1 1 1 2 1c6 0 21 -17 19 -21l-67 -167v-311h142z" />
    <glyph glyph-name="fl" unicode="fl" horiz-adv-x="270" 
d="M110 1010c0 1 1 1 2 1c6 0 21 -17 19 -21l-67 -167v-311h139v498c0 4 5 2 11 -3s11 -13 11 -17v-1000c0 -4 -5 -2 -11 3s-11 13 -11 17v478h-139v-497c0 -4 -4 -3 -10 2s-11 12 -11 16v835z" />
    <glyph glyph-name="N" unicode="N" horiz-adv-x="383" 
d="M56 -7c-6 5 -10 12 -10 16v1000c0 4 5 3 11 -3c5 -5 9 -11 10 -14l248 -921v938c0 4 5 3 11 -2s11 -12 11 -16v-1000c0 -3 -4 -3 -8 0c-6 4 -12 12 -13 17l-249 921v-938c0 -4 -5 -3 -11 2z" />
    <glyph glyph-name="eng" unicode="&#x14b;" horiz-adv-x="359" 
d="M175 418c43 23 87 47 130 70h-246v-7c39 -21 77 -42 116 -63zM206 402l107 -58c5 -3 16 -13 16 -20v-667c0 -1 0 -2 -1 -2l-309 -166h-1c-5 0 -19 14 -19 20c0 1 0 2 1 2l307 166v655c-39 21 -77 41 -116 62c-44 -24 -88 -47 -132 -71v-333c0 -4 -5 -2 -11 3
s-11 13 -11 17v467l-23 13c-3 2 -7 5 -10 9c-5 7 -7 13 -3 13h347c4 0 20 -15 20 -21c0 -1 0 -2 -1 -2zM59 356l102 55l-102 54v-109z" />
    <glyph glyph-name="Y" unicode="Y" horiz-adv-x="286" 
d="M143 -7c-6 5 -11 12 -11 16v500l-134 499c-1 5 2 5 8 1s11 -12 12 -17l123 -452l126 470c0 1 1 1 2 1c5 0 21 -18 20 -21l-135 -500v-499c0 -4 -5 -3 -11 2z" />
    <glyph glyph-name="Eogonek" unicode="&#x118;" horiz-adv-x="359" 
d="M65 -12c-4 0 -19 13 -19 21v1000c0 1 1 3 2 3h270c3 0 9 -6 14 -12s6 -12 3 -12h-268v-476h251c3 0 9 -6 14 -12s6 -12 3 -12h-268v-476h251c3 0 9 -6 14 -12s6 -12 3 -12h-13l-106 -165v-71c12 -6 22 -13 34 -19c17 9 36 19 53 28h1c5 0 19 -14 19 -20c0 -1 0 -2 -1 -2
l-41 -22l74 -40c5 -3 12 -10 14 -16c2 -4 1 -6 -1 -6h-201c-4 0 -11 6 -16 13c-4 5 -5 9 -3 10l88 48l-26 14c-7 4 -16 14 -16 19v84l1 1l93 144h-223zM267 -291c-19 -10 -38 -21 -57 -31h114c-19 10 -38 21 -57 31z" />
    <glyph glyph-name="Ccaron" unicode="&#x10c;" 
d="M175 918c43 23 87 47 130 70h-260c43 -23 87 -47 130 -70zM191 82c-43 -23 -87 -47 -130 -70h261c-43 23 -88 47 -131 70zM206 902l107 -58c5 -3 12 -10 15 -16s0 -8 -5 -5c-44 24 -88 47 -132 71c-44 -24 -88 -47 -132 -71v-655c39 -21 77 -41 116 -62
c44 24 89 48 133 72h1c6 0 20 -15 20 -21c0 -1 0 -2 -1 -2l-122 -66l146 -79c3 -2 8 -5 11 -9c5 -7 7 -13 3 -13h-348c-4 0 -19 15 -19 21c0 1 0 2 1 2l161 87l-108 58c-5 3 -16 13 -16 20v667c0 1 0 2 1 2l123 66l-147 79c-3 2 -7 5 -10 9c-5 7 -7 13 -3 13h347
c4 0 20 -15 20 -21c0 -1 0 -2 -1 -2zM122 1345c4 -1 11 -8 15 -14l41 -63l48 76c0 1 1 1 2 1c6 0 22 -18 19 -22l-53 -84c-3 -5 -16 8 -19 13l-53 84c-4 6 -4 10 0 9z" />
    <glyph glyph-name="dieresis" unicode="&#xa8;" horiz-adv-x="238" 
d="M51 943c-6 5 -11 13 -11 17v50c0 4 5 2 11 -3s11 -13 11 -17v-50c0 -4 -5 -2 -11 3zM185 943c-6 5 -11 13 -11 17v50c0 4 5 2 11 -3s11 -13 11 -17v-50c0 -4 -5 -2 -11 3z" />
    <glyph glyph-name="Eth" unicode="&#xd0;" horiz-adv-x="432" 
d="M76 987v1h-4zM78 1012c8 0 19 -17 19 -21v-16l244 -131c5 -3 15 -13 15 -20v-667c0 -1 0 -2 -1 -2c-86 -46 -172 -93 -258 -139v-25c0 -1 -1 -3 -2 -3h-50c-4 0 -19 15 -19 21c0 1 0 2 1 2l49 27v450h-67c-3 0 -10 6 -15 12s-6 12 -3 12h85v459l-34 19c-3 2 -8 5 -11 9
c-5 7 -7 13 -3 13h50zM97 488v-439l238 128v655l-238 128v-448h67c3 0 10 -6 15 -12s5 -12 2 -12h-84z" />
    <glyph glyph-name="guilsinglright" unicode="&#x203a;" horiz-adv-x="116" 
d="M39 78c-6 6 -10 12 -9 15l42 166l-42 165c-1 5 2 5 8 1s12 -11 13 -16l43 -167v-2l-43 -167c-1 -3 -6 -1 -12 5z" />
    <glyph glyph-name="OE" unicode="&#x152;" horiz-adv-x="540" 
d="M546 0c5 -6 6 -12 3 -12h-579c-4 0 -20 15 -20 21c0 1 0 2 1 2l162 87l-108 58c-5 3 -16 13 -16 20v667c0 1 0 2 1 2l123 66l-147 79c-3 2 -7 5 -10 9c-5 7 -8 13 -4 13h579c3 0 10 -6 15 -12s6 -12 3 -12h-231l-37 -20v-456h250c3 0 10 -6 15 -12s6 -12 3 -12h-268v-465
l21 -11h229c3 0 10 -6 15 -12zM127 918c43 23 87 47 130 70h-260c43 -23 87 -47 130 -70zM143 82c-43 -23 -87 -47 -130 -70h246v7c-39 21 -77 42 -116 63zM259 957l-102 -55l102 -55v110zM259 34v110l-102 -55zM259 177v655c-39 21 -77 41 -116 62
c-44 -24 -88 -47 -132 -71v-655c39 -21 77 -41 116 -62c44 24 88 47 132 71z" />
    <glyph glyph-name="quotesinglbase" unicode="&#x201a;" horiz-adv-x="92" 
d="M69 55c6 -6 10 -12 9 -15l-43 -167c-1 -3 -6 -1 -12 5s-10 12 -9 15l42 167c1 3 7 1 13 -5z" />
    <glyph glyph-name="Udieresis" unicode="&#xdc;" horiz-adv-x="367" 
d="M191 82c-43 -23 -87 -47 -130 -70h261c-43 23 -88 47 -131 70zM48 1007c6 -5 11 -12 11 -16v-823c39 -21 77 -41 116 -62c44 24 88 47 132 71v832c0 4 5 3 11 -2s11 -12 11 -16v-834c0 -1 0 -2 -1 -2l-122 -66l146 -79c5 -3 13 -10 15 -16c2 -4 1 -6 -1 -6h-348
c-4 0 -11 6 -16 13c-4 5 -4 9 -2 10l161 87l-108 58c-7 4 -16 15 -16 20v833c0 4 5 3 11 -2zM116 1276c-6 5 -11 13 -11 17v50c0 4 5 2 11 -3s11 -12 11 -16v-50c0 -4 -5 -3 -11 2zM250 1276c-6 5 -11 13 -11 17v50c0 4 5 2 11 -3s11 -12 11 -16v-50c0 -4 -5 -3 -11 2z" />
    <glyph glyph-name="k" unicode="k" 
d="M316 511h2c6 0 19 -14 19 -20c0 -1 0 -2 -1 -2l-265 -246l256 -237c5 -5 9 -11 9 -15c0 -1 -1 -3 -2 -3c-2 0 -5 2 -9 6l-258 239v-243c0 -4 -5 -2 -11 3s-11 13 -11 17v1000c0 4 5 2 11 -3s11 -13 11 -17v-709z" />
    <glyph glyph-name="eth" unicode="&#xf0;" 
d="M167 106c44 24 88 47 132 71v155c-39 21 -77 41 -116 62c-44 -24 -88 -47 -132 -71v-155c39 -21 77 -41 116 -62zM183 82c-43 -23 -87 -47 -130 -70h261c-43 23 -88 47 -131 70zM167 418c43 23 87 47 130 70h-260c43 -23 87 -47 130 -70zM198 89l146 -79
c5 -3 13 -10 15 -16c2 -4 1 -6 -1 -6h-348c-4 0 -11 6 -16 13c-4 5 -5 9 -3 10l162 87l-108 58c-7 4 -16 15 -16 20v167c0 1 0 2 1 2l123 66l-147 79c-5 3 -13 10 -15 16c-2 4 0 6 2 6h307l19 247l-19 82c-1 5 2 5 8 1s12 -12 13 -17l2 -10l15 195c0 3 6 1 12 -4
s10 -13 10 -16l-20 -249l20 -82c1 -5 -3 -5 -9 -1s-11 12 -12 17l-3 10l-14 -173h18c4 0 11 -6 16 -13c4 -5 5 -9 3 -10l-38 -21v-311c0 -1 0 -2 -1 -2zM299 457l-101 -55l101 -55v110z" />
    <glyph glyph-name="O" unicode="O" horiz-adv-x="367" 
d="M175 106c44 24 88 47 132 71v655c-39 21 -77 41 -116 62c-44 -24 -88 -47 -132 -71v-655c39 -21 77 -41 116 -62zM175 918c43 23 87 47 130 70h-260c43 -23 87 -47 130 -70zM191 82c-43 -23 -87 -47 -130 -70h261c-43 23 -88 47 -131 70zM206 902l107 -58
c5 -3 16 -13 16 -20v-667c0 -1 0 -2 -1 -2l-122 -66l146 -79c3 -2 8 -5 11 -9c5 -7 7 -13 3 -13h-348c-4 0 -19 15 -19 21c0 1 0 2 1 2l161 87l-108 58c-5 3 -16 13 -16 20v667c0 1 0 2 1 2l123 66l-147 79c-3 2 -7 5 -10 9c-5 7 -7 13 -3 13h347c4 0 20 -15 20 -21
c0 -1 0 -2 -1 -2z" />
    <glyph glyph-name="semicolon" unicode=";" horiz-adv-x="100" 
d="M51 507c6 -5 11 -13 11 -17v-50c0 -4 -5 -2 -11 3s-11 13 -11 17v50c0 4 5 2 11 -3zM40 60c0 1 1 1 2 1c5 0 21 -18 20 -21l-43 -167c0 -1 -1 -1 -2 -1c-5 0 -21 18 -20 21z" />
    <glyph glyph-name="E" unicode="E" horiz-adv-x="359" 
d="M65 -12c-4 0 -19 13 -19 21v1000c0 1 1 3 2 3h270c3 0 9 -6 14 -12s6 -12 3 -12h-268v-476h251c3 0 9 -6 14 -12s6 -12 3 -12h-268v-476h251c3 0 9 -6 14 -12s6 -12 3 -12h-270z" />
    <glyph glyph-name="u" unicode="u" 
d="M183 82c-43 -23 -87 -47 -130 -70h261c-43 23 -88 47 -131 70zM40 507c6 -5 11 -12 11 -16v-323c39 -21 77 -41 116 -62c44 24 88 47 132 71v332c0 4 5 3 11 -2s11 -12 11 -16v-334c0 -1 0 -2 -1 -2l-122 -66l146 -79c5 -3 13 -10 15 -16c2 -4 1 -6 -1 -6h-348
c-4 0 -11 6 -16 13c-4 5 -5 9 -3 10l162 87l-108 58c-7 4 -16 15 -16 20v333c0 4 5 3 11 -2z" />
    <glyph glyph-name="y" unicode="y" horiz-adv-x="302" 
d="M14 509c6 -4 12 -12 13 -17l122 -452l126 470c1 3 7 1 13 -5s10 -12 9 -15l-270 -1000c0 -1 -1 -1 -2 -1c-5 0 -21 18 -20 21l135 499l-134 499c-1 5 2 5 8 1z" />
    <glyph glyph-name="egrave" unicode="&#xe8;" 
d="M183 82c-43 -23 -87 -47 -130 -70h261c-43 23 -88 47 -131 70zM167 418c43 23 87 47 130 70h-260c43 -23 87 -47 130 -70zM183 394c-30 -16 -61 -33 -91 -49h183c-30 16 -62 33 -92 49zM227 758c6 -4 20 -27 3 -16l-107 83c-6 4 -11 13 -12 17s3 3 9 -1zM305 344
c5 -3 17 -12 16 -20c0 -1 -1 -2 -2 -2h-268v-154c39 -21 77 -41 116 -62c44 24 89 48 133 72h1c6 0 20 -15 20 -21c0 -1 0 -2 -1 -2l-122 -66l146 -79c5 -3 13 -10 15 -16c2 -4 1 -6 -1 -6h-348c-4 0 -11 6 -16 13c-4 5 -5 9 -3 10l162 87l-108 58c-7 4 -16 15 -16 20v167
c0 1 0 2 1 2l123 66l-147 79c-5 3 -13 10 -15 16c-2 4 0 6 2 6h347c4 0 11 -6 16 -13c4 -5 5 -9 3 -10l-161 -87z" />
    <glyph glyph-name="atilde" unicode="&#xe3;" horiz-adv-x="359" 
d="M167 418c43 23 87 47 130 70h-260c43 -23 87 -47 130 -70zM183 82c-43 -23 -87 -47 -130 -70h246v7c-39 21 -77 42 -116 63zM105 739c0 -1 -1 -1 -2 -1c-6 0 -22 19 -19 23l54 83c3 4 15 -8 18 -13l41 -63l48 76c0 1 1 1 2 1c6 0 22 -18 19 -22l-54 -84
c-3 -5 -15 8 -18 13l-40 63zM-7 512h347c4 0 20 -15 20 -21c0 -1 0 -2 -1 -2l-38 -21v-445l23 -13c3 -2 8 -5 11 -9c5 -7 7 -13 3 -13h-348c-4 0 -20 15 -20 21c0 1 0 2 1 2l162 87l-108 58c-5 3 -16 13 -16 20v167c0 1 0 2 1 2l123 66l-147 79c-3 2 -7 5 -10 9
c-5 7 -7 13 -3 13zM299 347v110l-101 -55zM299 332c-39 21 -77 41 -116 62c-44 -24 -88 -47 -132 -71v-155c39 -21 77 -41 116 -62c44 24 88 47 132 71v155zM299 144l-101 -55l101 -54v109z" />
    <glyph glyph-name="four" unicode="4" horiz-adv-x="319" 
d="M216 512v425l-172 -425h172zM237 512h48c3 0 10 -6 15 -12s6 -12 3 -12h-66v-497c0 -4 -4 -3 -10 2s-11 12 -11 16v479h-183c-8 0 -21 18 -19 22l202 500c1 2 5 1 10 -3c6 -5 11 -12 11 -16v-479z" />
    <glyph glyph-name="Sacute" unicode="&#x15a;" horiz-adv-x="335" 
d="M159 918c43 23 87 47 130 70h-260c43 -23 87 -47 130 -70zM175 82c-43 -23 -87 -47 -130 -70h261c-43 23 -88 47 -131 70zM190 902l107 -58c5 -3 12 -10 15 -16s0 -8 -5 -5c-44 24 -88 47 -132 71c-44 -24 -88 -47 -132 -71v-162l265 -327c3 -3 5 -8 5 -10v-167
c0 -1 0 -2 -1 -2l-122 -66l146 -79c5 -3 13 -10 15 -16c2 -4 1 -6 -1 -6h-348c-4 0 -11 6 -16 13c-4 5 -5 9 -3 10l162 87l-108 58c-5 3 -11 10 -14 16s-1 8 4 5c44 -24 88 -47 132 -71c44 24 88 47 132 71v162l-264 327c-3 4 -6 8 -6 10v167c0 1 0 2 1 2l123 66l-147 79
c-3 2 -7 5 -10 9c-5 7 -7 13 -3 13h347c4 0 20 -15 20 -21c0 -1 0 -2 -1 -2zM211 1344h2c6 0 19 -14 19 -20c0 -1 0 -2 -1 -2l-107 -83h-2c-6 0 -19 14 -19 20c0 1 0 2 1 2z" />
    <glyph glyph-name="nine" unicode="9" horiz-adv-x="359" 
d="M183 82c-43 -23 -87 -47 -130 -70h261c-43 23 -88 47 -131 70zM167 918c43 23 87 47 130 70h-260c43 -23 87 -47 130 -70zM299 677v155c-39 21 -77 41 -116 62c-44 -24 -88 -47 -132 -71v-155c39 -21 77 -41 116 -62c44 24 88 47 132 71zM299 519c-39 21 -77 42 -116 63
c-43 -23 -87 -47 -130 -70h246v7zM299 644l-101 -55l101 -55v110zM153 98l-108 58c-5 3 -11 10 -14 16s-1 8 4 5c44 -24 88 -47 132 -71c44 24 88 47 132 71v311h-289c-4 0 -20 15 -20 21c0 1 0 2 1 2l162 87l-108 58c-5 3 -16 13 -16 20v167c0 1 0 2 1 2l123 66l-147 79
c-3 2 -7 5 -10 9c-5 7 -7 13 -3 13h347c4 0 20 -15 20 -21c0 -1 0 -2 -1 -2l-161 -87l107 -58c5 -3 16 -13 16 -20v-301l23 -13c3 -2 8 -5 11 -9c5 -7 7 -13 3 -13h-37v-331c0 -1 0 -2 -1 -2l-122 -66l146 -79c3 -2 8 -5 11 -9c5 -7 7 -13 3 -13h-348c-4 0 -20 15 -20 21
c0 1 0 2 1 2z" />
    <glyph glyph-name="five" unicode="5" horiz-adv-x="367" 
d="M191 82c-43 -23 -87 -47 -130 -70h261c-43 23 -88 47 -131 70zM59 655v-7c39 -21 77 -42 116 -63c43 23 87 47 130 70h-246zM59 632v-110l102 55zM161 98l-108 58c-5 3 -11 10 -14 16s-1 8 4 5c44 -24 88 -47 132 -71c44 24 88 47 132 71v321c-39 21 -77 42 -116 63
c-45 -24 -89 -48 -133 -72c-7 -4 -21 17 -21 20v135l-23 12c-2 1 -22 22 -13 22h36v331c0 1 2 3 3 3h269c3 0 10 -6 15 -12s6 -12 3 -12h-268v-310h289c4 0 20 -15 20 -21c0 -1 0 -2 -1 -2l-161 -87l107 -58c5 -3 16 -12 16 -19v-334c0 -1 0 -2 -1 -2l-122 -66l146 -79
c3 -2 8 -5 11 -9c5 -7 7 -13 3 -13h-348c-4 0 -19 15 -19 21c0 1 0 2 1 2z" />
    <glyph glyph-name="gbreve" unicode="&#x11f;" horiz-adv-x="359" 
d="M183 82c-43 -23 -87 -47 -130 -70h246v7c-39 21 -77 42 -116 63zM167 418c43 23 87 47 130 70h-260c43 -23 87 -47 130 -70zM183 394c-44 -24 -88 -47 -132 -71v-155c39 -21 77 -41 116 -62c44 24 88 47 132 71v155c-39 21 -77 41 -116 62zM183 -418
c-43 -23 -87 -47 -130 -70h261c-43 23 -88 47 -131 70zM153 -402l-108 58c-5 3 -11 10 -14 16s-1 8 4 5c44 -24 88 -47 132 -71c44 24 88 47 132 71v311h-289c-4 0 -11 6 -16 13c-4 5 -5 9 -3 10l162 87l-108 58c-7 4 -16 15 -16 20v167c0 1 0 2 1 2l123 66l-147 79
c-5 3 -13 10 -15 16c-2 4 0 6 2 6h347c4 0 11 -6 16 -13c4 -5 5 -9 3 -10l-38 -21v-445l23 -13c5 -3 13 -10 15 -16c2 -4 1 -6 -1 -6h-37v-331c0 -1 0 -2 -1 -2l-122 -66l146 -79c3 -2 8 -5 11 -9c5 -7 7 -13 3 -13h-348c-4 0 -20 15 -20 21c0 1 0 2 1 2zM183 792l-57 -30
h115c-19 10 -39 20 -58 30zM167 816c17 9 34 19 51 28v82c0 4 5 2 11 -3s10 -12 10 -16v-83c0 -1 1 -2 0 -2l-41 -22l73 -40c5 -3 13 -10 15 -16c2 -4 1 -6 -1 -6h-202c-4 0 -11 6 -16 13c-4 5 -4 9 -2 10l88 48l-26 14c-7 4 -16 15 -16 20v83c0 4 5 2 11 -3s10 -12 10 -16
v-72c12 -6 23 -13 35 -19zM299 457l-101 -55l101 -55v110zM299 144l-101 -55l101 -55v110z" />
    <glyph glyph-name="iacute" unicode="&#xed;" horiz-adv-x="103" 
d="M51 -7c-6 5 -11 13 -11 17v500c0 4 5 2 11 -3s11 -13 11 -17v-500c0 -4 -5 -2 -11 3zM94 844h2c6 0 19 -14 19 -20c0 -1 0 -2 -1 -2l-107 -83h-2c-6 0 -19 14 -19 20c0 1 0 2 1 2z" />
    <glyph glyph-name="U" unicode="U" horiz-adv-x="367" 
d="M191 82c-43 -23 -87 -47 -130 -70h261c-43 23 -88 47 -131 70zM48 1007c6 -5 11 -12 11 -16v-823c39 -21 77 -41 116 -62c44 24 88 47 132 71v832c0 4 5 3 11 -2s11 -12 11 -16v-834c0 -1 0 -2 -1 -2l-122 -66l146 -79c5 -3 13 -10 15 -16c2 -4 1 -6 -1 -6h-348
c-4 0 -11 6 -16 13c-4 5 -4 9 -2 10l161 87l-108 58c-7 4 -16 15 -16 20v833c0 4 5 3 11 -2z" />
    <glyph glyph-name="ccaron" unicode="&#x10d;" 
d="M183 82c-43 -23 -87 -47 -130 -70h261c-43 23 -88 47 -131 70zM167 418c43 23 87 47 130 70h-260c43 -23 87 -47 130 -70zM183 394c-44 -24 -88 -47 -132 -71v-155c39 -21 77 -41 116 -62c44 24 89 48 133 72h1c6 0 20 -15 20 -21c0 -1 0 -2 -1 -2l-122 -66l146 -79
c5 -3 13 -10 15 -16c2 -4 1 -6 -1 -6h-348c-4 0 -11 6 -16 13c-4 5 -5 9 -3 10l162 87l-108 58c-7 4 -16 15 -16 20v167c0 1 0 2 1 2l123 66l-147 79c-5 3 -13 10 -15 16c-2 4 0 6 2 6h347c4 0 11 -6 16 -13c4 -5 5 -9 3 -10l-161 -87l107 -58c5 -3 12 -10 15 -16
s0 -8 -5 -5c-44 24 -88 47 -132 71zM114 845c4 -1 11 -8 15 -14l41 -63l48 76c0 1 1 1 2 1c6 0 22 -18 19 -22l-53 -84c-3 -5 -16 8 -19 13l-53 84c-4 6 -4 10 0 9z" />
    <glyph glyph-name="Tcaron" unicode="&#x164;" horiz-adv-x="286" 
d="M143 -7c-6 5 -11 13 -11 17v978h-115c-3 0 -10 6 -15 12s-6 12 -3 12h270c3 0 10 -6 15 -12s6 -12 3 -12h-133v-998c0 -4 -5 -2 -11 3zM82 1345c4 -1 11 -8 15 -14l41 -63l48 76c0 1 1 1 2 1c6 0 22 -18 19 -22l-54 -84c-3 -5 -15 8 -18 13l-53 84c-4 6 -4 10 0 9z" />
    <glyph glyph-name="zcaron" unicode="&#x17e;" horiz-adv-x="335" 
d="M26 500c-5 6 -6 12 -3 12h270c3 0 21 -13 21 -21c0 -1 -1 -1 -1 -2l-259 -477h239c3 0 10 -6 15 -12s6 -12 3 -12h-270c-7 0 -21 19 -19 23l258 477h-239c-3 0 -10 6 -15 12zM106 845c4 -1 11 -8 15 -14l41 -63l48 76c0 1 1 1 2 1c6 0 22 -18 19 -22l-53 -84
c-3 -5 -16 8 -19 13l-53 84c-4 6 -4 10 0 9z" />
    <glyph glyph-name="Odieresis" unicode="&#xd6;" horiz-adv-x="367" 
d="M175 106c44 24 88 47 132 71v655c-39 21 -77 41 -116 62c-44 -24 -88 -47 -132 -71v-655c39 -21 77 -41 116 -62zM175 918c43 23 87 47 130 70h-260c43 -23 87 -47 130 -70zM191 82c-43 -23 -87 -47 -130 -70h261c-43 23 -88 47 -131 70zM206 902l107 -58
c5 -3 16 -13 16 -20v-667c0 -1 0 -2 -1 -2l-122 -66l146 -79c3 -2 8 -5 11 -9c5 -7 7 -13 3 -13h-348c-4 0 -19 15 -19 21c0 1 0 2 1 2l161 87l-108 58c-5 3 -16 13 -16 20v667c0 1 0 2 1 2l123 66l-147 79c-3 2 -7 5 -10 9c-5 7 -7 13 -3 13h347c4 0 20 -15 20 -21
c0 -1 0 -2 -1 -2zM116 1276c-6 5 -11 13 -11 17v50c0 4 5 2 11 -3s11 -12 11 -16v-50c0 -4 -5 -3 -11 2zM250 1276c-6 5 -11 13 -11 17v50c0 4 5 2 11 -3s11 -12 11 -16v-50c0 -4 -5 -3 -11 2z" />
    <glyph glyph-name="T" unicode="T" horiz-adv-x="286" 
d="M143 -7c-6 5 -11 13 -11 17v978h-115c-3 0 -10 6 -15 12s-6 12 -3 12h270c3 0 10 -6 15 -12s6 -12 3 -12h-133v-998c0 -4 -5 -2 -11 3z" />
    <glyph glyph-name="racute" unicode="&#x155;" horiz-adv-x="235" 
d="M48 507c6 -5 11 -13 11 -17v-134l246 132h-87c-3 0 -10 6 -15 12s-5 12 -2 12h147c4 0 20 -15 20 -21c0 -1 0 -2 -1 -2l-308 -166v-333c0 -4 -5 -2 -11 3s-11 13 -11 17v500c0 4 5 2 11 -3zM173 844h2c6 0 19 -14 19 -20c0 -1 0 -2 -1 -2l-108 -83h-2c-6 0 -19 14 -19 20
c0 1 0 2 1 2z" />
    <glyph glyph-name="ffl" unicode="&#xfb04;" horiz-adv-x="367" 
d="M105 1010c0 1 1 1 2 1c6 0 21 -17 19 -21l-67 -167v-311h113v331l1 1l67 166c0 1 1 1 2 1c6 0 21 -17 19 -21l-67 -167v-311h113v498c0 4 5 2 11 -3s11 -13 11 -17v-1000c0 -4 -5 -2 -11 3s-11 13 -11 17v478h-113v-497c0 -4 -5 -3 -11 2s-11 12 -11 16v479h-113v-497
c0 -4 -5 -3 -11 2s-11 12 -11 16v834l1 1z" />
    <glyph glyph-name="questiondown" unicode="&#xbf;" horiz-adv-x="335" 
d="M175 -418c-43 -23 -87 -47 -130 -70h261c-43 23 -88 47 -131 70zM167 173c6 -5 11 -12 11 -16v-166c0 -1 -1 -2 -1 -2l-134 -166v-155c39 -21 77 -41 116 -62c44 24 89 48 133 72h1c6 0 20 -15 20 -21c0 -1 0 -2 -1 -2l-122 -66l146 -79c5 -3 13 -10 15 -16
c2 -4 1 -6 -1 -6h-348c-4 0 -11 6 -16 13c-4 5 -5 9 -3 10l162 87l-108 58c-7 4 -16 15 -16 20v167c0 1 1 1 1 1l134 166v166c0 4 5 2 11 -3zM167 507c6 -5 11 -13 11 -17v-50c0 -4 -5 -2 -11 3s-11 13 -11 17v50c0 4 5 2 11 -3z" />
    <glyph glyph-name="Uhungarumlaut" unicode="&#x170;" horiz-adv-x="367" 
d="M191 82c-43 -23 -87 -47 -130 -70h261c-43 23 -88 47 -131 70zM48 1007c6 -5 11 -12 11 -16v-823c39 -21 77 -41 116 -62c44 24 88 47 132 71v832c0 4 5 3 11 -2s11 -12 11 -16v-834c0 -1 0 -2 -1 -2l-122 -66l146 -79c5 -3 13 -10 15 -16c2 -4 1 -6 -1 -6h-348
c-4 0 -11 6 -16 13c-4 5 -4 9 -2 10l161 87l-108 58c-7 4 -16 15 -16 20v833c0 4 5 3 11 -2zM160 1344h2c6 0 19 -14 19 -20c0 -1 0 -2 -1 -2l-94 -83h-2c-6 0 -19 14 -19 20c0 1 0 2 1 2zM207 1239h-2c-6 0 -20 14 -20 20c0 1 0 2 1 2l94 83h2c6 0 19 -14 19 -20
c0 -1 0 -2 -1 -2z" />
    <glyph glyph-name="exclamdown" unicode="&#xa1;" horiz-adv-x="124" 
d="M62 507c6 -5 11 -13 11 -17v-50c0 -4 -5 -2 -11 3s-11 13 -11 17v50c0 4 5 2 11 -3zM62 174c6 -5 11 -13 11 -17v-667c0 -4 -5 -2 -11 3s-11 13 -11 17v666c0 4 5 3 11 -2z" />
    <glyph glyph-name="x" unicode="x" horiz-adv-x="335" 
d="M26 511c5 -2 12 -9 15 -15l121 -225l130 240c0 1 1 1 2 1c6 0 22 -19 19 -23l-134 -248l132 -245c3 -6 2 -9 -3 -7s-12 9 -15 15l-121 225l-129 -240c0 -1 -1 -1 -2 -1c-6 0 -22 19 -19 23l134 248l-133 245c-3 6 -2 9 3 7z" />
    <glyph glyph-name="quotedblleft" unicode="&#x201c;" horiz-adv-x="173" 
d="M30 1008c6 -4 12 -11 13 -16l43 -166c1 -5 -3 -5 -9 -1s-11 11 -12 16l-43 167c-1 5 2 4 8 0zM94 1008c6 -4 12 -11 13 -16l43 -166c1 -5 -2 -5 -8 -1s-12 11 -13 16l-43 167c-1 5 2 4 8 0z" />
    <glyph glyph-name="two" unicode="2" horiz-adv-x="335" 
d="M159 918c43 23 87 47 130 70h-260c43 -23 87 -47 130 -70zM190 902l107 -58c5 -3 16 -13 16 -20v-168l-261 -644h241c3 0 10 -6 15 -12s6 -12 3 -12h-270c-8 0 -21 18 -19 22l269 667v155c-39 21 -77 41 -116 62c-44 -24 -89 -48 -133 -72h-1c-6 0 -20 15 -20 21
c0 1 0 2 1 2l123 66l-147 79c-3 2 -7 5 -10 9c-5 7 -7 13 -3 13h347c4 0 20 -15 20 -21c0 -1 0 -2 -1 -2z" />
    <glyph glyph-name="c" unicode="c" 
d="M183 82c-43 -23 -87 -47 -130 -70h261c-43 23 -88 47 -131 70zM167 418c43 23 87 47 130 70h-260c43 -23 87 -47 130 -70zM183 394c-44 -24 -88 -47 -132 -71v-155c39 -21 77 -41 116 -62c44 24 89 48 133 72h1c6 0 20 -15 20 -21c0 -1 0 -2 -1 -2l-122 -66l146 -79
c5 -3 13 -10 15 -16c2 -4 1 -6 -1 -6h-348c-4 0 -11 6 -16 13c-4 5 -5 9 -3 10l162 87l-108 58c-7 4 -16 15 -16 20v167c0 1 0 2 1 2l123 66l-147 79c-5 3 -13 10 -15 16c-2 4 0 6 2 6h347c4 0 11 -6 16 -13c4 -5 5 -9 3 -10l-161 -87l107 -58c5 -3 12 -10 15 -16
s0 -8 -5 -5c-44 24 -88 47 -132 71z" />
    <glyph glyph-name="Cacute" unicode="&#x106;" 
d="M175 918c43 23 87 47 130 70h-260c43 -23 87 -47 130 -70zM191 82c-43 -23 -87 -47 -130 -70h261c-43 23 -88 47 -131 70zM206 902l107 -58c5 -3 12 -10 15 -16s0 -8 -5 -5c-44 24 -88 47 -132 71c-44 -24 -88 -47 -132 -71v-655c39 -21 77 -41 116 -62
c44 24 89 48 133 72h1c6 0 20 -15 20 -21c0 -1 0 -2 -1 -2l-122 -66l146 -79c3 -2 8 -5 11 -9c5 -7 7 -13 3 -13h-348c-4 0 -19 15 -19 21c0 1 0 2 1 2l161 87l-108 58c-5 3 -16 13 -16 20v667c0 1 0 2 1 2l123 66l-147 79c-3 2 -7 5 -10 9c-5 7 -7 13 -3 13h347
c4 0 20 -15 20 -21c0 -1 0 -2 -1 -2zM227 1344h2c6 0 19 -14 19 -20c0 -1 0 -2 -1 -2l-107 -83h-2c-6 0 -19 14 -19 20c0 1 0 2 1 2z" />
    <glyph glyph-name="a" unicode="a" horiz-adv-x="359" 
d="M167 418c43 23 87 47 130 70h-260c43 -23 87 -47 130 -70zM183 82c-43 -23 -87 -47 -130 -70h246v7c-39 21 -77 42 -116 63zM-7 512h347c4 0 20 -15 20 -21c0 -1 0 -2 -1 -2l-38 -21v-445l23 -13c3 -2 8 -5 11 -9c5 -7 7 -13 3 -13h-348c-4 0 -20 15 -20 21c0 1 0 2 1 2
l162 87l-108 58c-5 3 -16 13 -16 20v167c0 1 0 2 1 2l123 66l-147 79c-3 2 -7 5 -10 9c-5 7 -7 13 -3 13zM299 347v110l-101 -55zM299 332c-39 21 -77 41 -116 62c-44 -24 -88 -47 -132 -71v-155c39 -21 77 -41 116 -62c44 24 88 47 132 71v155zM299 144l-101 -55l101 -54
v109z" />
    <glyph glyph-name="tcedilla" unicode="&#x163;" horiz-adv-x="194" 
d="M97 1007c6 -5 11 -13 11 -17v-478h61c3 0 10 -6 15 -12s5 -12 2 -12h-78v-490l89 -74c5 -4 16 -19 9 -19h-175l114 -61c5 -3 16 -13 16 -20v-83c0 -1 0 -2 -1 -2l-41 -22l74 -40c3 -2 7 -5 10 -9c5 -7 7 -13 3 -13h-201c-4 0 -20 15 -20 21c0 1 0 2 1 2l88 48l-26 14
c-5 3 -11 9 -14 15s-1 8 4 5l51 -27c17 9 34 19 51 28v71l-139 74c-3 2 -8 6 -11 10c-5 7 -7 12 -3 12h189l-76 63c-6 4 -14 14 -14 19v478h-61c-3 0 -10 6 -15 12s-6 12 -3 12h79v498c0 4 5 2 11 -3zM105 -291c-19 -10 -38 -21 -57 -31h114c-19 10 -38 21 -57 31z" />
    <glyph glyph-name="endash" unicode="&#x2013;" horiz-adv-x="335" 
d="M26 417c-5 6 -6 11 -3 11h270c3 0 10 -5 15 -11s6 -12 3 -12h-270c-3 0 -10 6 -15 12z" />
    <glyph glyph-name="quoteleft" unicode="&#x2018;" horiz-adv-x="92" 
d="M22 1008c6 -4 12 -11 13 -16l43 -166c1 -5 -3 -5 -9 -1s-11 11 -12 16l-43 167c-1 5 2 4 8 0z" />
    <glyph glyph-name="Ohungarumlaut" unicode="&#x150;" horiz-adv-x="367" 
d="M175 106c44 24 88 47 132 71v655c-39 21 -77 41 -116 62c-44 -24 -88 -47 -132 -71v-655c39 -21 77 -41 116 -62zM175 918c43 23 87 47 130 70h-260c43 -23 87 -47 130 -70zM191 82c-43 -23 -87 -47 -130 -70h261c-43 23 -88 47 -131 70zM206 902l107 -58
c5 -3 16 -13 16 -20v-667c0 -1 0 -2 -1 -2l-122 -66l146 -79c3 -2 8 -5 11 -9c5 -7 7 -13 3 -13h-348c-4 0 -19 15 -19 21c0 1 0 2 1 2l161 87l-108 58c-5 3 -16 13 -16 20v667c0 1 0 2 1 2l123 66l-147 79c-3 2 -7 5 -10 9c-5 7 -7 13 -3 13h347c4 0 20 -15 20 -21
c0 -1 0 -2 -1 -2zM160 1344h2c6 0 19 -14 19 -20c0 -1 0 -2 -1 -2l-94 -83h-2c-6 0 -19 14 -19 20c0 1 0 2 1 2zM207 1239h-2c-6 0 -20 14 -20 20c0 1 0 2 1 2l94 83h2c6 0 19 -14 19 -20c0 -1 0 -2 -1 -2z" />
    <glyph glyph-name="p" unicode="p" horiz-adv-x="359" 
d="M191 82c-43 -23 -87 -47 -130 -70h261c-43 23 -88 47 -131 70zM175 418c43 23 87 47 130 70h-246v-7c39 -21 77 -42 116 -63zM1 512h347c4 0 20 -15 20 -21c0 -1 0 -2 -1 -2l-161 -87l107 -58c5 -3 16 -13 16 -20v-167c0 -1 0 -2 -1 -2l-122 -66l146 -79c3 -2 8 -5 11 -9
c5 -7 7 -13 3 -13h-307v-498c0 -4 -5 -2 -11 3s-11 13 -11 17v478h-19c-4 0 -19 15 -19 21c0 1 0 2 1 2l37 21v445l-23 13c-3 2 -7 5 -10 9c-5 7 -7 13 -3 13zM59 153v-110l102 55zM59 168c39 -21 77 -41 116 -62c44 24 88 47 132 71v155c-39 21 -77 41 -116 62
c-44 -24 -88 -47 -132 -71v-155zM59 356l102 55l-102 54v-109z" />
    <glyph glyph-name="braceleft" unicode="{" horiz-adv-x="170" 
d="M478 1011h1c5 0 19 -14 19 -20c0 -1 0 -2 -1 -2l-308 -166v-332c0 -1 0 -2 -1 -2l-142 -77l128 -68c5 -3 15 -13 15 -20v-322l293 -158c5 -3 12 -10 15 -16s0 -8 -5 -5l-308 167c-7 4 -16 14 -16 19v323l-139 74c-4 2 -21 19 -15 22l154 83v332c0 1 0 2 1 2z" />
    <glyph glyph-name="Uacute" unicode="&#xda;" horiz-adv-x="367" 
d="M191 82c-43 -23 -87 -47 -130 -70h261c-43 23 -88 47 -131 70zM48 1007c6 -5 11 -12 11 -16v-823c39 -21 77 -41 116 -62c44 24 88 47 132 71v832c0 4 5 3 11 -2s11 -12 11 -16v-834c0 -1 0 -2 -1 -2l-122 -66l146 -79c5 -3 13 -10 15 -16c2 -4 1 -6 -1 -6h-348
c-4 0 -11 6 -16 13c-4 5 -4 9 -2 10l161 87l-108 58c-7 4 -16 15 -16 20v833c0 4 5 3 11 -2zM227 1344h2c6 0 19 -14 19 -20c0 -1 0 -2 -1 -2l-107 -83h-2c-6 0 -19 14 -19 20c0 1 0 2 1 2z" />
    <glyph glyph-name="t" unicode="t" horiz-adv-x="194" 
d="M97 1007c6 -5 11 -13 11 -17v-478h61c3 0 10 -6 15 -12s5 -12 2 -12h-78v-498c0 -4 -5 -2 -11 3s-11 13 -11 17v478h-61c-3 0 -10 6 -15 12s-6 12 -3 12h79v498c0 4 5 2 11 -3z" />
    <glyph glyph-name="hyphen" unicode="-" horiz-adv-x="227" 
d="M26 417c-5 6 -6 11 -3 11h162c3 0 10 -5 15 -11s5 -12 2 -12h-161c-3 0 -10 6 -15 12z" />
    <glyph glyph-name="ugrave" unicode="&#xf9;" 
d="M183 82c-43 -23 -87 -47 -130 -70h261c-43 23 -88 47 -131 70zM40 507c6 -5 11 -12 11 -16v-323c39 -21 77 -41 116 -62c44 24 88 47 132 71v332c0 4 5 3 11 -2s11 -12 11 -16v-334c0 -1 0 -2 -1 -2l-122 -66l146 -79c5 -3 13 -10 15 -16c2 -4 1 -6 -1 -6h-348
c-4 0 -11 6 -16 13c-4 5 -5 9 -3 10l162 87l-108 58c-7 4 -16 15 -16 20v333c0 4 5 3 11 -2zM227 758c6 -4 20 -27 3 -16l-107 83c-6 4 -11 13 -12 17s3 3 9 -1z" />
    <glyph glyph-name="numbersign" unicode="#" horiz-adv-x="335" 
d="M86 -6c-6 5 -11 12 -11 16l17 312h-51c-3 0 -10 5 -15 11s-6 12 -3 12h71l16 310h-69c-3 0 -10 6 -15 12s-6 11 -3 11h89l17 332c0 4 5 1 11 -4s11 -12 11 -16l-17 -312h86l17 332c0 4 5 1 11 -4s11 -12 11 -16l-17 -312h51c3 0 10 -5 15 -11s6 -12 3 -12h-70l-17 -310
h69c3 0 10 -6 15 -12s6 -11 3 -11h-88l-18 -332c0 -4 -5 -1 -11 4s-11 12 -11 16l17 312h-85l-18 -332c0 -4 -5 -1 -11 4zM218 655h-85l-17 -310h86z" />
    <glyph glyph-name="abreve" unicode="&#x103;" horiz-adv-x="359" 
d="M167 418c43 23 87 47 130 70h-260c43 -23 87 -47 130 -70zM183 82c-43 -23 -87 -47 -130 -70h246v7c-39 21 -77 42 -116 63zM183 792l-57 -30h115c-19 10 -39 20 -58 30zM167 816c17 9 34 19 51 28v82c0 4 5 2 11 -3s10 -12 10 -16v-83c0 -1 1 -2 0 -2l-41 -22l73 -40
c5 -3 13 -10 15 -16c2 -4 1 -6 -1 -6h-202c-4 0 -11 6 -16 13c-4 5 -4 9 -2 10l88 48l-26 14c-7 4 -16 15 -16 20v83c0 4 5 2 11 -3s10 -12 10 -16v-72c12 -6 23 -13 35 -19zM-7 512h347c4 0 20 -15 20 -21c0 -1 0 -2 -1 -2l-38 -21v-445l23 -13c3 -2 8 -5 11 -9
c5 -7 7 -13 3 -13h-348c-4 0 -20 15 -20 21c0 1 0 2 1 2l162 87l-108 58c-5 3 -16 13 -16 20v167c0 1 0 2 1 2l123 66l-147 79c-3 2 -7 5 -10 9c-5 7 -7 13 -3 13zM299 347v110l-101 -55zM299 332c-39 21 -77 41 -116 62c-44 -24 -88 -47 -132 -71v-155
c39 -21 77 -41 116 -62c44 24 88 47 132 71v155zM299 144l-101 -55l101 -54v109z" />
    <glyph glyph-name="bar" unicode="|" horiz-adv-x="140" 
d="M70 -174c-6 5 -11 13 -11 17v1333c0 4 5 3 11 -2s11 -13 11 -17v-1333c0 -4 -5 -3 -11 2z" />
    <glyph glyph-name="IJ" unicode="&#x132;" horiz-adv-x="410" 
d="M253 94c-51 -27 -102 -55 -153 -82h305c-51 27 -101 55 -152 82zM122 172c-3 6 0 8 5 5c37 -20 72 -39 109 -59c37 20 74 39 111 59v832c0 4 4 3 10 -2s11 -12 11 -16v-834c0 -1 0 -2 -1 -2l-100 -54l168 -91c5 -3 13 -10 15 -16c2 -4 1 -6 -1 -6h-392c-4 0 -10 6 -15 13
c-7 10 -3 11 3 14v995c0 4 5 2 11 -3s11 -13 11 -17v-963l155 83l-86 46c-5 3 -11 10 -14 16z" />
    <glyph glyph-name="L" unicode="L" horiz-adv-x="343" 
d="M65 -12c-4 0 -19 13 -19 21v1000c0 4 4 3 10 -2s11 -12 11 -16v-979h251c3 0 9 -6 14 -12s6 -12 3 -12h-270z" />
    <glyph glyph-name="Dcaron" unicode="&#x10e;" horiz-adv-x="375" 
d="M67 966v-923l248 134v655zM48 1012c8 0 19 -17 19 -21v-10l254 -137c5 -3 16 -13 16 -20v-667c0 -1 0 -2 -1 -2c-90 -48 -179 -97 -269 -145v-19c0 -1 -1 -3 -2 -3h-39c-4 0 -19 15 -19 21c0 1 0 2 1 2l38 21v945l-24 13c-3 2 -7 5 -10 9c-5 7 -7 13 -3 13h39zM117 1345
c4 -1 11 -8 15 -14l40 -63l49 76c0 1 1 1 2 1c6 0 22 -18 19 -22l-54 -84c-3 -5 -15 8 -18 13l-54 84c-4 6 -3 10 1 9z" />
    <glyph glyph-name="s" unicode="s" 
d="M183 82c-43 -23 -87 -47 -130 -70h261c-43 23 -88 47 -131 70zM167 418c43 23 87 47 130 70h-260c43 -23 87 -47 130 -70zM153 98l-108 58c-5 3 -11 10 -14 16s-1 8 4 5c44 -24 88 -47 132 -71l123 66l-246 152c-4 3 -19 18 -14 21l123 66l-147 79c-5 3 -13 10 -15 16
c-2 4 0 6 2 6h347c4 0 11 -6 16 -13c4 -5 5 -9 3 -10l-161 -87l107 -58c5 -3 12 -10 15 -16s0 -8 -5 -5c-44 24 -88 47 -132 71c-41 -22 -81 -44 -122 -66l245 -152c3 -2 20 -18 14 -21l-122 -66l146 -79c3 -2 8 -5 11 -9c5 -7 7 -13 3 -13h-348c-4 0 -20 15 -20 21
c0 1 0 2 1 2z" />
    <glyph glyph-name="Icircumflex" unicode="&#xce;" horiz-adv-x="113" 
d="M56 -7c-6 5 -11 13 -11 17v1000c0 4 5 2 11 -3s11 -13 11 -17v-1000c0 -4 -5 -2 -11 3zM12 1239c0 -1 -1 -1 -2 -1c-6 0 -21 19 -18 23l53 83c3 4 16 -8 19 -13l53 -83c4 -6 4 -10 0 -9s-12 7 -16 13l-40 63z" />
    <glyph glyph-name="ae" unicode="&#xe6;" horiz-adv-x="594" 
d="M160 110c42 23 84 44 126 67v155c-36 20 -73 38 -109 58c-42 -23 -84 -44 -126 -67v-155c36 -20 73 -38 109 -58zM160 415c38 21 76 40 114 61l-23 12h-228c46 -25 91 -48 137 -73zM177 85c-46 -25 -91 -48 -137 -73h195l39 21c-33 18 -64 34 -97 52zM433 390l-84 -45
h169c-28 15 -57 30 -85 45zM433 85c-38 -21 -76 -40 -114 -61l23 -12h228c-46 25 -91 48 -137 73zM417 415c46 25 91 48 137 73h-196l-39 -21c33 -18 65 -34 98 -52zM286 347v102l-95 -51zM286 144l-95 -51l95 -51v102zM308 15v-3h6zM286 485v3h-6zM308 322v-154
c36 -20 73 -38 109 -58c42 23 84 45 126 68h1c6 0 20 -15 20 -21c0 -1 0 -2 -1 -2l-116 -62l154 -83c5 -3 12 -10 14 -16c2 -4 1 -6 -1 -6h-618c-4 0 -19 15 -19 21c0 1 0 2 1 2l168 91l-101 54c-5 3 -16 13 -16 20v167c0 1 0 2 1 2l116 62l-153 83c-3 2 -8 5 -11 9
c-5 7 -7 13 -3 13h618c4 0 10 -6 15 -13c4 -5 5 -9 3 -10l-168 -91l101 -54c3 -2 8 -6 11 -10c5 -7 7 -12 3 -12h-254zM308 458v-102l94 51zM308 153v-102l94 51z" />
    <glyph glyph-name="r" unicode="r" horiz-adv-x="235" 
d="M48 507c6 -5 11 -13 11 -17v-134l246 132h-87c-3 0 -10 6 -15 12s-5 12 -2 12h147c4 0 20 -15 20 -21c0 -1 0 -2 -1 -2l-308 -166v-333c0 -4 -5 -2 -11 3s-11 13 -11 17v500c0 4 5 2 11 -3z" />
    <glyph glyph-name="Acircumflex" unicode="&#xc2;" horiz-adv-x="302" 
d="M15 -6c-6 5 -10 13 -10 16l135 1000c0 3 7 1 13 -5c5 -5 9 -11 9 -14l135 -1000c1 -4 -4 -4 -10 1s-11 13 -12 17l-64 479h-117l-67 -498c0 -3 -6 -1 -12 4zM108 1239c0 -1 -1 -1 -2 -1c-6 0 -22 19 -19 23l54 83c3 4 15 -8 18 -13l54 -83c4 -6 3 -10 -1 -9s-11 7 -15 13
l-41 63zM208 512l-56 408l-55 -408h111z" />
    <glyph glyph-name="Iacute" unicode="&#xcd;" horiz-adv-x="113" 
d="M56 -7c-6 5 -11 13 -11 17v1000c0 4 5 2 11 -3s11 -13 11 -17v-1000c0 -4 -5 -2 -11 3zM99 1344h2c6 0 19 -14 19 -20c0 -1 0 -2 -1 -2l-107 -83h-2c-6 0 -19 14 -19 20c0 1 0 2 1 2z" />
    <glyph glyph-name="agrave" unicode="&#xe0;" horiz-adv-x="359" 
d="M167 418c43 23 87 47 130 70h-260c43 -23 87 -47 130 -70zM183 82c-43 -23 -87 -47 -130 -70h246v7c-39 21 -77 42 -116 63zM227 758c6 -4 20 -27 3 -16l-107 83c-6 4 -11 13 -12 17s3 3 9 -1zM-7 512h347c4 0 20 -15 20 -21c0 -1 0 -2 -1 -2l-38 -21v-445l23 -13
c3 -2 8 -5 11 -9c5 -7 7 -13 3 -13h-348c-4 0 -20 15 -20 21c0 1 0 2 1 2l162 87l-108 58c-5 3 -16 13 -16 20v167c0 1 0 2 1 2l123 66l-147 79c-3 2 -7 5 -10 9c-5 7 -7 13 -3 13zM299 347v110l-101 -55zM299 332c-39 21 -77 41 -116 62c-44 -24 -88 -47 -132 -71v-155
c39 -21 77 -41 116 -62c44 24 88 47 132 71v155zM299 144l-101 -55l101 -54v109z" />
    <glyph glyph-name="j" unicode="j" horiz-adv-x="111" 
d="M-238 -511h-1c-6 0 -20 14 -20 20c0 1 0 2 1 2l308 166v832c0 4 5 3 11 -2s11 -12 11 -16v-834c0 -1 0 -2 -1 -2zM61 776c-6 5 -11 13 -11 17v50c0 4 5 2 11 -3s11 -12 11 -16v-50c0 -4 -5 -3 -11 2z" />
    <glyph glyph-name="germandbls" unicode="&#xdf;" horiz-adv-x="359" 
d="M37 499l-5 -3l5 -4v7zM59 543l248 134v155c-39 21 -77 41 -116 62c-44 -24 -88 -47 -132 -71v-280zM175 918c43 23 87 47 130 70h-260c43 -23 87 -47 130 -70zM59 466v-423l248 134v155zM59 481l254 -137c5 -3 16 -13 16 -20v-167c0 -1 0 -2 -1 -2
c-89 -48 -178 -95 -267 -143h287c3 0 10 -6 15 -12s6 -12 3 -12h-348c-4 0 -19 15 -19 21c0 1 0 2 1 2l37 21v445l-23 13c-4 2 -20 18 -14 21c13 7 24 14 37 21v311c0 1 0 2 1 2l123 66l-147 79c-3 2 -7 5 -10 9c-5 7 -7 13 -3 13h347c4 0 20 -15 20 -21c0 -1 0 -2 -1 -2
l-161 -87l107 -58c5 -3 16 -13 16 -20v-167c0 -1 0 -2 -1 -2c-90 -48 -179 -97 -269 -145v-29z" />
    <glyph glyph-name="oacute" unicode="&#xf3;" 
d="M167 106c44 24 88 47 132 71v155c-39 21 -77 41 -116 62c-44 -24 -88 -47 -132 -71v-155c39 -21 77 -41 116 -62zM183 82c-43 -23 -87 -47 -130 -70h261c-43 23 -88 47 -131 70zM167 418c43 23 87 47 130 70h-260c43 -23 87 -47 130 -70zM198 89l146 -79
c5 -3 13 -10 15 -16c2 -4 1 -6 -1 -6h-348c-4 0 -11 6 -16 13c-4 5 -5 9 -3 10l162 87l-108 58c-7 4 -16 15 -16 20v167c0 1 0 2 1 2l123 66l-147 79c-5 3 -13 10 -15 16c-2 4 0 6 2 6h347c4 0 11 -6 16 -13c4 -5 5 -9 3 -10l-161 -87l107 -58c7 -4 16 -15 16 -20v-167
c0 -1 0 -2 -1 -2zM219 844h2c6 0 19 -14 19 -20c0 -1 0 -2 -1 -2l-107 -83h-2c-6 0 -19 14 -19 20c0 1 0 2 1 2z" />
    <glyph glyph-name="Racute" unicode="&#x154;" horiz-adv-x="359" 
d="M67 966v-423l248 134v155zM48 1012c8 0 19 -17 19 -21v-10l254 -137c5 -3 16 -13 16 -20v-167c0 -1 0 -2 -1 -2c-90 -48 -179 -97 -269 -145v-80l267 -433c4 -6 3 -10 -1 -8s-11 8 -15 14l-251 406v-418c0 -4 -5 -3 -11 2s-10 12 -10 16v435l-37 59c-1 2 -3 7 -1 8l38 21
v445l-24 13c-3 2 -7 5 -10 9c-5 7 -7 13 -3 13h39zM221 1344h2c6 0 19 -14 19 -20c0 -1 0 -2 -1 -2l-107 -83h-2c-6 0 -19 14 -19 20c0 1 0 2 1 2zM46 465v23h-15z" />
    <glyph glyph-name="C" unicode="C" 
d="M175 918c43 23 87 47 130 70h-260c43 -23 87 -47 130 -70zM191 82c-43 -23 -87 -47 -130 -70h261c-43 23 -88 47 -131 70zM206 902l107 -58c5 -3 12 -10 15 -16s0 -8 -5 -5c-44 24 -88 47 -132 71c-44 -24 -88 -47 -132 -71v-655c39 -21 77 -41 116 -62
c44 24 89 48 133 72h1c6 0 20 -15 20 -21c0 -1 0 -2 -1 -2l-122 -66l146 -79c3 -2 8 -5 11 -9c5 -7 7 -13 3 -13h-348c-4 0 -19 15 -19 21c0 1 0 2 1 2l161 87l-108 58c-5 3 -16 13 -16 20v667c0 1 0 2 1 2l123 66l-147 79c-3 2 -7 5 -10 9c-5 7 -7 13 -3 13h347
c4 0 20 -15 20 -21c0 -1 0 -2 -1 -2z" />
    <glyph glyph-name="Ncaron" unicode="&#x147;" horiz-adv-x="383" 
d="M56 -7c-6 5 -10 12 -10 16v1000c0 4 5 3 11 -3c5 -5 9 -11 10 -14l248 -921v938c0 4 5 3 11 -2s11 -12 11 -16v-1000c0 -3 -4 -3 -8 0c-6 4 -12 12 -13 17l-249 921v-938c0 -4 -5 -3 -11 2zM130 1345c4 -1 12 -8 16 -14l40 -63l48 76c0 1 1 1 2 1c6 0 22 -18 19 -22
l-53 -84c-3 -5 -16 8 -19 13l-53 84c-4 6 -4 10 0 9z" />
    <glyph glyph-name="slash" unicode="/" horiz-adv-x="227" 
d="M195 1006c6 -5 10 -13 9 -16l-161 -1000c-1 -3 -6 -1 -12 4s-11 13 -10 16l162 1000c1 3 6 1 12 -4z" />
    <glyph glyph-name="Uring" unicode="&#x16e;" horiz-adv-x="367" 
d="M191 82c-43 -23 -87 -47 -130 -70h261c-43 23 -88 47 -131 70zM48 1007c6 -5 11 -12 11 -16v-823c39 -21 77 -41 116 -62c44 24 88 47 132 71v832c0 4 5 3 11 -2s11 -12 11 -16v-834c0 -1 0 -2 -1 -2l-122 -66l146 -79c5 -3 13 -10 15 -16c2 -4 1 -6 -1 -6h-348
c-4 0 -11 6 -16 13c-4 5 -4 9 -2 10l161 87l-108 58c-7 4 -16 15 -16 20v833c0 4 5 3 11 -2zM191 1209c-19 -10 -38 -21 -57 -31h115c-19 10 -39 21 -58 31zM175 1374c19 10 38 21 57 31h-114c19 -10 38 -21 57 -31zM175 1233c17 9 34 19 51 28v71c-12 6 -23 12 -35 18
l-51 -27v-71c12 -6 23 -13 35 -19zM206 1217l73 -40c5 -3 13 -10 15 -16c2 -4 1 -6 -1 -6h-202c-4 0 -11 6 -16 13c-4 5 -4 9 -2 10l88 48l-26 14c-7 4 -16 14 -16 19v84c0 1 0 2 1 2l41 22l-74 39c-5 3 -13 11 -15 17c-2 4 0 5 2 5h201c4 0 11 -5 16 -12c4 -5 5 -10 3 -11
l-88 -47l26 -14c7 -4 16 -15 16 -20v-83c0 -1 0 -2 -1 -2z" />
    <glyph glyph-name="Tcedilla" unicode="&#x162;" horiz-adv-x="286" 
d="M2 1000c-5 6 -6 12 -3 12h270c3 0 10 -6 15 -12s6 -12 3 -12h-133v-991l88 -73c5 -4 17 -19 10 -19h-175l114 -61c5 -3 15 -13 15 -20v-83c0 -1 0 -2 -1 -2l-41 -22l74 -40c3 -2 7 -5 10 -9c5 -7 8 -13 4 -13h-202c-4 0 -20 15 -20 21c0 1 0 2 1 2l89 48l-27 14
c-5 3 -11 9 -14 15s-1 8 4 5l51 -27c17 9 34 19 51 28v71l-139 74c-2 1 -22 22 -14 22h189l-78 65c-5 4 -15 15 -11 18v977h-115c-3 0 -10 6 -15 12zM150 -291c-19 -10 -38 -21 -57 -31h114c-19 10 -38 21 -57 31z" />
    <glyph glyph-name="d" unicode="d" horiz-adv-x="359" 
d="M183 82c-43 -23 -87 -47 -130 -70h246v7c-39 21 -77 42 -116 63zM167 418c43 23 87 47 130 70h-260c43 -23 87 -47 130 -70zM183 394c-44 -24 -88 -47 -132 -71v-155c39 -21 77 -41 116 -62c44 24 88 47 132 71v155c-39 21 -77 41 -116 62zM310 1007c6 -5 11 -13 11 -17
v-478h19c4 0 11 -6 16 -13c4 -5 5 -9 3 -10l-38 -21v-445l23 -13c5 -3 13 -10 15 -16c2 -4 1 -6 -1 -6h-348c-4 0 -11 6 -16 13c-4 5 -5 9 -3 10l162 87l-108 58c-7 4 -16 15 -16 20v167c0 1 0 2 1 2l123 66l-147 79c-5 3 -13 10 -15 16c-2 4 0 6 2 6h306v498c0 4 5 2 11 -3
zM299 144l-101 -55l101 -54v109zM299 457l-101 -55l101 -55v110z" />
    <glyph glyph-name="Zcaron" unicode="&#x17d;" horiz-adv-x="319" 
d="M18 1000c-5 6 -6 12 -3 12h270c4 0 22 -14 20 -22l-264 -978h244c3 0 10 -6 15 -12s6 -12 3 -12h-270c-8 0 -21 18 -20 22l265 978h-245c-3 0 -10 6 -15 12zM98 1345c4 -1 11 -8 15 -14l41 -63l48 76c0 1 1 1 2 1c6 0 22 -18 19 -22l-54 -84c-3 -5 -15 8 -18 13l-53 84
c-4 6 -4 10 0 9z" />
    <glyph glyph-name="A" unicode="A" horiz-adv-x="302" 
d="M15 -6c-6 5 -10 13 -10 16l135 1000c0 3 7 1 13 -5c5 -5 9 -11 9 -14l135 -1000c1 -4 -4 -4 -10 1s-11 13 -12 17l-64 479h-117l-67 -498c0 -3 -6 -1 -12 4zM208 512l-56 408l-55 -408h111z" />
    <glyph glyph-name="ampersand" unicode="&#x26;" horiz-adv-x="364" 
d="M167 918c43 23 87 47 130 70h-260c43 -23 87 -47 130 -70zM184 82c-43 -23 -88 -47 -131 -70h261c-43 23 -87 47 -130 70zM167 106c37 20 73 39 110 59c-44 91 -89 182 -133 273l-93 -115v-155c39 -21 77 -41 116 -62zM184 894c-44 -24 -89 -47 -133 -71v-164l88 -181
l161 199v155c-39 21 -77 41 -116 62zM288 171l12 6v166c0 4 4 2 10 -3s11 -12 11 -16v-167c0 -1 0 -2 -1 -2c-6 -3 -13 -7 -19 -10c24 -50 49 -100 73 -150c3 -6 0 -8 -5 -5s-11 9 -14 15l-65 134l-92 -50l146 -79c5 -3 13 -10 15 -16c2 -4 1 -6 -1 -6h-348
c-4 0 -11 6 -16 13c-4 5 -4 9 -2 10l161 87l-108 58c-7 4 -16 15 -16 20v167c0 1 1 1 1 1c33 41 67 83 100 124l-99 204c-1 2 -2 3 -2 4v167c0 1 0 2 1 2l123 66l-147 79c-3 2 -7 5 -10 9c-5 7 -7 13 -3 13h347c4 0 20 -15 20 -21c0 -1 0 -2 -1 -2l-161 -87l107 -58
c5 -3 16 -13 16 -20v-168l-168 -207c45 -93 90 -185 135 -278z" />
    <glyph glyph-name="plus" unicode="+" horiz-adv-x="211" 
d="M18 417c-5 6 -6 11 -3 11h79v165c0 4 5 2 11 -3s11 -12 11 -16v-146h61c3 0 10 -5 15 -11s5 -12 2 -12h-78v-165c0 -4 -5 -2 -11 3s-11 13 -11 17v145h-61c-3 0 -10 6 -15 12z" />
    <glyph glyph-name="Ocircumflex" unicode="&#xd4;" horiz-adv-x="367" 
d="M175 106c44 24 88 47 132 71v655c-39 21 -77 41 -116 62c-44 -24 -88 -47 -132 -71v-655c39 -21 77 -41 116 -62zM175 918c43 23 87 47 130 70h-260c43 -23 87 -47 130 -70zM191 82c-43 -23 -87 -47 -130 -70h261c-43 23 -88 47 -131 70zM206 902l107 -58
c5 -3 16 -13 16 -20v-667c0 -1 0 -2 -1 -2l-122 -66l146 -79c3 -2 8 -5 11 -9c5 -7 7 -13 3 -13h-348c-4 0 -19 15 -19 21c0 1 0 2 1 2l161 87l-108 58c-5 3 -16 13 -16 20v667c0 1 0 2 1 2l123 66l-147 79c-3 2 -7 5 -10 9c-5 7 -7 13 -3 13h347c4 0 20 -15 20 -21
c0 -1 0 -2 -1 -2zM140 1239c0 -1 -1 -1 -2 -1c-6 0 -22 19 -19 23l54 83c3 4 15 -8 18 -13l54 -83c4 -6 3 -10 -1 -9s-11 7 -15 13l-40 63z" />
    <glyph glyph-name="ocircumflex" unicode="&#xf4;" 
d="M167 106c44 24 88 47 132 71v155c-39 21 -77 41 -116 62c-44 -24 -88 -47 -132 -71v-155c39 -21 77 -41 116 -62zM183 82c-43 -23 -87 -47 -130 -70h261c-43 23 -88 47 -131 70zM167 418c43 23 87 47 130 70h-260c43 -23 87 -47 130 -70zM198 89l146 -79
c5 -3 13 -10 15 -16c2 -4 1 -6 -1 -6h-348c-4 0 -11 6 -16 13c-4 5 -5 9 -3 10l162 87l-108 58c-7 4 -16 15 -16 20v167c0 1 0 2 1 2l123 66l-147 79c-5 3 -13 10 -15 16c-2 4 0 6 2 6h347c4 0 11 -6 16 -13c4 -5 5 -9 3 -10l-161 -87l107 -58c7 -4 16 -15 16 -20v-167
c0 -1 0 -2 -1 -2zM132 739c0 -1 -1 -1 -2 -1c-6 0 -22 19 -19 23l54 83c3 4 15 -8 18 -13l54 -83c4 -6 3 -10 -1 -9s-11 7 -15 13l-40 63z" />
    <glyph glyph-name="visiblespace" unicode="&#x2420;" horiz-adv-x="335" 
d="M41 -178c-8 0 -20 17 -20 21v166c0 4 5 3 11 -2s11 -12 11 -16v-146h248v164c0 4 5 3 11 -2s11 -12 11 -16v-167c0 -1 -1 -2 -2 -2h-270z" />
    <glyph glyph-name="Zacute" unicode="&#x179;" horiz-adv-x="319" 
d="M18 1000c-5 6 -6 12 -3 12h270c4 0 22 -14 20 -22l-264 -978h244c3 0 10 -6 15 -12s6 -12 3 -12h-270c-8 0 -21 18 -20 22l265 978h-245c-3 0 -10 6 -15 12zM203 1344h2c6 0 19 -14 19 -20c0 -1 0 -2 -1 -2l-107 -83h-2c-6 0 -20 14 -20 20c0 1 0 2 1 2z" />
    <glyph glyph-name="z" unicode="z" horiz-adv-x="335" 
d="M26 500c-5 6 -6 12 -3 12h270c3 0 21 -13 21 -21c0 -1 -1 -1 -1 -2l-259 -477h239c3 0 10 -6 15 -12s6 -12 3 -12h-270c-7 0 -21 19 -19 23l258 477h-239c-3 0 -10 6 -15 12z" />
    <glyph glyph-name="V" unicode="V" horiz-adv-x="286" 
d="M7 1008c6 -5 11 -13 12 -17l123 -911l125 930c0 3 6 1 12 -4s10 -13 10 -16l-135 -1000c0 -3 -4 -2 -9 2c-6 5 -12 13 -13 17l-135 1000c-1 4 4 4 10 -1z" />
    <glyph glyph-name="yacute" unicode="&#xfd;" horiz-adv-x="302" 
d="M14 509c6 -4 12 -12 13 -17l122 -452l126 470c1 3 7 1 13 -5s10 -12 9 -15l-270 -1000c0 -1 -1 -1 -2 -1c-5 0 -21 18 -20 21l135 499l-134 499c-1 5 2 5 8 1zM195 844h2c6 0 19 -14 19 -20c0 -1 0 -2 -1 -2l-108 -83h-2c-6 0 -19 14 -19 20c0 1 0 2 1 2z" />
    <glyph glyph-name="sterling" unicode="&#xa3;" horiz-adv-x="356" 
d="M10 -0c-5 6 -6 12 -3 12h79v831c0 1 0 2 1 2l108 58l-161 87c-3 2 -7 5 -10 9c-5 7 -7 13 -3 13h376c4 0 19 -15 19 -21c0 -1 0 -2 -1 -2l-175 -95l93 -50c5 -3 12 -10 15 -16s0 -8 -5 -5l-117 63c-39 -21 -80 -42 -119 -63v-811h223c3 0 10 -6 15 -12s5 -12 2 -12h-322
c-3 0 -10 6 -15 12zM36 500c5 -6 5 -12 2 -12h-13c-3 0 -10 6 -15 12s-6 12 -3 12h14c3 0 10 -6 15 -12zM209 911c48 26 97 51 145 77h-289c48 -26 96 -51 144 -77z" />
    <glyph glyph-name="dotaccent" unicode="&#x2d9;" horiz-adv-x="238" 
d="M118 943c-6 5 -11 13 -11 17v50c0 4 5 2 11 -3s11 -13 11 -17v-50c0 -4 -5 -2 -11 3z" />
    <glyph glyph-name="ffi" unicode="&#xfb03;" horiz-adv-x="367" 
d="M309 512c4 0 20 -13 20 -21v-500c0 -4 -5 -3 -11 2s-11 12 -11 16v479h-113v-497c0 -4 -5 -3 -11 2s-11 12 -11 16v479h-113v-497c0 -4 -5 -3 -11 2s-11 12 -11 16v834l1 1l67 166c0 1 1 1 2 1c6 0 21 -17 19 -21l-67 -167v-311h113v331l1 1l67 166c0 1 1 1 2 1
c6 0 21 -17 19 -21l-67 -167v-311h115z" />
    <glyph glyph-name="cwm" horiz-adv-x="97" 
d="M48 -7c-6 5 -11 13 -11 17v1000c0 4 5 2 11 -3s11 -13 11 -17v-1000c0 -4 -5 -2 -11 3z" />
    <glyph glyph-name="oe" unicode="&#x153;" horiz-adv-x="594" 
d="M160 110c42 23 84 44 126 67v155c-36 20 -73 38 -109 58c-42 -23 -84 -44 -126 -67v-155c36 -20 73 -38 109 -58zM160 415c38 21 76 40 114 61l-23 12h-228c46 -25 91 -48 137 -73zM177 85c-46 -25 -91 -48 -137 -73h195l39 21c-33 18 -64 34 -97 52zM433 390l-84 -45
h169c-28 15 -57 30 -85 45zM433 85c-38 -21 -76 -40 -114 -61l23 -12h228c-46 25 -91 48 -137 73zM417 415c46 25 91 48 137 73h-196l-39 -21c33 -18 65 -34 98 -52zM314 12l-9 4l-9 -4h18zM288 484l9 4h-17zM-21 512h618c4 0 10 -6 15 -13c4 -5 5 -9 3 -10l-168 -91
l101 -54c3 -2 8 -6 11 -10c5 -7 7 -12 3 -12h-255v-154c36 -20 74 -38 110 -58c42 23 84 45 126 68h1c6 0 20 -15 20 -21c0 -1 0 -2 -1 -2l-116 -62l154 -83c5 -3 12 -10 14 -16c2 -4 1 -6 -1 -6h-618c-4 0 -19 15 -19 21c0 1 0 2 1 2l168 91l-101 54c-5 3 -16 13 -16 20
v167c0 1 0 2 1 2l116 62l-153 83c-3 2 -8 5 -11 9c-5 7 -7 13 -3 13zM305 460l-114 -62l97 -53c38 21 76 41 114 62zM305 155l-114 -62l97 -53l114 62z" />
    <glyph glyph-name="Lacute" unicode="&#x139;" horiz-adv-x="343" 
d="M65 -12c-4 0 -19 13 -19 21v1000c0 4 4 3 10 -2s11 -12 11 -16v-979h251c3 0 9 -6 14 -12s6 -12 3 -12h-270zM235 1344h2c6 0 19 -14 19 -20c0 -1 0 -2 -1 -2l-107 -83h-2c-6 0 -19 14 -19 20c0 1 0 2 1 2z" />
    <glyph glyph-name="zdotaccent" unicode="&#x17c;" horiz-adv-x="335" 
d="M26 500c-5 6 -6 12 -3 12h270c3 0 21 -13 21 -21c0 -1 -1 -1 -1 -2l-259 -477h239c3 0 10 -6 15 -12s6 -12 3 -12h-270c-7 0 -21 19 -19 23l258 477h-239c-3 0 -10 6 -15 12zM167 776c-6 5 -11 13 -11 17v50c0 4 5 2 11 -3s11 -12 11 -16v-50c0 -4 -5 -3 -11 2z" />
    <glyph glyph-name="aogonek" unicode="&#x105;" horiz-adv-x="359" 
d="M167 418c43 23 87 47 130 70h-260c43 -23 87 -47 130 -70zM183 82c-43 -23 -87 -47 -130 -70h246v7c-39 21 -77 42 -116 63zM246 -291c-19 -10 -39 -21 -58 -31h115c-19 10 -38 21 -57 31zM229 -267c17 9 35 19 52 28h1c6 0 20 -14 20 -20c0 -1 0 -2 -1 -2l-41 -22
l73 -40c5 -3 13 -10 15 -16c2 -4 1 -6 -1 -6h-202c-4 0 -11 6 -16 13c-4 5 -4 9 -2 10l88 48l-26 14c-7 4 -16 14 -16 19v85l93 144h-256c-4 0 -20 15 -20 21c0 1 0 2 1 2l162 87l-108 58c-5 3 -16 13 -16 20v167c0 1 0 2 1 2l123 66l-147 79c-3 2 -7 5 -10 9
c-5 7 -7 13 -3 13h347c4 0 20 -15 20 -21c0 -1 0 -2 -1 -2l-38 -21v-445l23 -13c3 -2 8 -5 11 -9c5 -7 7 -13 3 -13h-57l-107 -165v-71c12 -6 23 -13 35 -19zM299 347v110l-101 -55zM299 332c-39 21 -77 41 -116 62c-44 -24 -88 -47 -132 -71v-155c39 -21 77 -41 116 -62
c44 24 88 47 132 71v155zM299 144l-101 -55l101 -54v109z" />
    <glyph glyph-name="Oacute" unicode="&#xd3;" horiz-adv-x="367" 
d="M175 106c44 24 88 47 132 71v655c-39 21 -77 41 -116 62c-44 -24 -88 -47 -132 -71v-655c39 -21 77 -41 116 -62zM175 918c43 23 87 47 130 70h-260c43 -23 87 -47 130 -70zM191 82c-43 -23 -87 -47 -130 -70h261c-43 23 -88 47 -131 70zM206 902l107 -58
c5 -3 16 -13 16 -20v-667c0 -1 0 -2 -1 -2l-122 -66l146 -79c3 -2 8 -5 11 -9c5 -7 7 -13 3 -13h-348c-4 0 -19 15 -19 21c0 1 0 2 1 2l161 87l-108 58c-5 3 -16 13 -16 20v667c0 1 0 2 1 2l123 66l-147 79c-3 2 -7 5 -10 9c-5 7 -7 13 -3 13h347c4 0 20 -15 20 -21
c0 -1 0 -2 -1 -2zM227 1344h2c6 0 19 -14 19 -20c0 -1 0 -2 -1 -2l-107 -83h-2c-6 0 -19 14 -19 20c0 1 0 2 1 2z" />
    <glyph glyph-name="edieresis" unicode="&#xeb;" 
d="M183 82c-43 -23 -87 -47 -130 -70h261c-43 23 -88 47 -131 70zM167 418c43 23 87 47 130 70h-260c43 -23 87 -47 130 -70zM183 394c-30 -16 -61 -33 -91 -49h183c-30 16 -62 33 -92 49zM108 776c-6 5 -11 13 -11 17v50c0 4 5 2 11 -3s11 -12 11 -16v-50c0 -4 -5 -3 -11 2
zM242 776c-6 5 -11 13 -11 17v50c0 4 5 2 11 -3s11 -12 11 -16v-50c0 -4 -5 -3 -11 2zM305 344c5 -3 17 -12 16 -20c0 -1 -1 -2 -2 -2h-268v-154c39 -21 77 -41 116 -62c44 24 89 48 133 72h1c6 0 20 -15 20 -21c0 -1 0 -2 -1 -2l-122 -66l146 -79c5 -3 13 -10 15 -16
c2 -4 1 -6 -1 -6h-348c-4 0 -11 6 -16 13c-4 5 -5 9 -3 10l162 87l-108 58c-7 4 -16 15 -16 20v167c0 1 0 2 1 2l123 66l-147 79c-5 3 -13 10 -15 16c-2 4 0 6 2 6h347c4 0 11 -6 16 -13c4 -5 5 -9 3 -10l-161 -87z" />
    <glyph glyph-name="l" unicode="l" horiz-adv-x="112" 
d="M56 -7c-6 5 -11 13 -11 17v1000c0 4 5 2 11 -3s11 -13 11 -17v-1000c0 -4 -5 -2 -11 3z" />
    <glyph glyph-name="b" unicode="b" horiz-adv-x="367" 
d="M183 106c44 24 88 47 132 71v155c-39 21 -77 41 -116 62c-44 -24 -88 -47 -132 -71v-155c39 -21 77 -41 116 -62zM199 82c-43 -23 -87 -47 -130 -70h261c-43 23 -88 47 -131 70zM183 418c43 23 87 47 130 70h-246v-7c39 -21 77 -42 116 -63zM321 344c6 -3 16 -12 16 -20
v-167c0 -1 0 -2 -1 -2l-122 -66l146 -79c5 -3 13 -10 15 -16c2 -4 1 -6 -1 -6h-348c-4 0 -11 6 -16 13c-4 5 -4 9 -2 10l37 21v445l-23 13c-5 3 -13 10 -15 16c-2 4 0 6 2 6h36v498c0 4 5 2 11 -3s11 -13 11 -17v-478h289c4 0 11 -6 16 -13c4 -5 5 -9 3 -10l-161 -87zM67 43
l102 55l-102 55v-110zM67 356l102 55l-102 54v-109z" />
    <glyph glyph-name="dcroat" unicode="&#x111;" horiz-adv-x="367" 
d="M183 82c-43 -23 -87 -47 -130 -70h246v7c-39 21 -77 42 -116 63zM167 418c43 23 87 47 130 70h-260c43 -23 87 -47 130 -70zM183 394c-44 -24 -88 -47 -132 -71v-155c39 -21 77 -41 116 -62c44 24 88 47 132 71v155c-39 21 -77 41 -116 62zM310 1007c6 -5 11 -13 11 -17
v-145h7c3 0 10 -6 15 -12s6 -11 3 -11h-25v-310h19c4 0 11 -6 16 -13c4 -5 5 -9 3 -10l-38 -21v-445l23 -13c5 -3 13 -10 15 -16c2 -4 1 -6 -1 -6h-348c-4 0 -11 6 -16 13c-4 5 -5 9 -3 10l162 87l-108 58c-7 4 -16 15 -16 20v167c0 1 0 2 1 2l123 66l-147 79
c-5 3 -13 10 -15 16c-2 4 0 6 2 6h306v310h-88c-3 0 -10 5 -15 11s-6 12 -3 12h106v165c0 4 5 2 11 -3zM299 144l-101 -55l101 -54v109zM299 457l-101 -55l101 -55v110z" />
    <glyph glyph-name="ohungarumlaut" unicode="&#x151;" 
d="M167 106c44 24 88 47 132 71v155c-39 21 -77 41 -116 62c-44 -24 -88 -47 -132 -71v-155c39 -21 77 -41 116 -62zM183 82c-43 -23 -87 -47 -130 -70h261c-43 23 -88 47 -131 70zM167 418c43 23 87 47 130 70h-260c43 -23 87 -47 130 -70zM198 89l146 -79
c5 -3 13 -10 15 -16c2 -4 1 -6 -1 -6h-348c-4 0 -11 6 -16 13c-4 5 -5 9 -3 10l162 87l-108 58c-7 4 -16 15 -16 20v167c0 1 0 2 1 2l123 66l-147 79c-5 3 -13 10 -15 16c-2 4 0 6 2 6h347c4 0 11 -6 16 -13c4 -5 5 -9 3 -10l-161 -87l107 -58c7 -4 16 -15 16 -20v-167
c0 -1 0 -2 -1 -2zM152 844h2c6 0 19 -14 19 -20c0 -1 0 -2 -1 -2l-94 -83h-2c-6 0 -19 14 -19 20c0 1 0 2 1 2zM199 739h-2c-6 0 -20 14 -20 20c0 1 0 2 1 2l94 83h2c6 0 19 -14 19 -20c0 -1 0 -2 -1 -2z" />
    <glyph glyph-name="X" unicode="X" horiz-adv-x="319" 
d="M35 -10c0 -1 -1 -1 -2 -1c-5 0 -21 18 -20 21l135 499l-134 499c-1 5 2 5 8 1s12 -12 13 -17l122 -452l126 470c1 3 7 1 13 -5s10 -12 9 -15l-135 -499l135 -499c1 -5 -3 -5 -9 -1s-11 12 -12 17l-122 452z" />
    <glyph glyph-name="e" unicode="e" 
d="M183 82c-43 -23 -87 -47 -130 -70h261c-43 23 -88 47 -131 70zM167 418c43 23 87 47 130 70h-260c43 -23 87 -47 130 -70zM183 394c-30 -16 -61 -33 -91 -49h183c-30 16 -62 33 -92 49zM305 344c5 -3 17 -12 16 -20c0 -1 -1 -2 -2 -2h-268v-154c39 -21 77 -41 116 -62
c44 24 89 48 133 72h1c6 0 20 -15 20 -21c0 -1 0 -2 -1 -2l-122 -66l146 -79c5 -3 13 -10 15 -16c2 -4 1 -6 -1 -6h-348c-4 0 -11 6 -16 13c-4 5 -5 9 -3 10l162 87l-108 58c-7 4 -16 15 -16 20v167c0 1 0 2 1 2l123 66l-147 79c-5 3 -13 10 -15 16c-2 4 0 6 2 6h347
c4 0 11 -6 16 -13c4 -5 5 -9 3 -10l-161 -87z" />
    <glyph glyph-name="Egrave" unicode="&#xc8;" horiz-adv-x="359" 
d="M65 -12c-4 0 -19 13 -19 21v1000c0 1 1 3 2 3h270c3 0 9 -6 14 -12s6 -12 3 -12h-268v-476h251c3 0 9 -6 14 -12s6 -12 3 -12h-268v-476h251c3 0 9 -6 14 -12s6 -12 3 -12h-270zM243 1258c6 -4 20 -27 3 -16l-107 83c-6 4 -11 13 -12 17s3 3 9 -1z" />
    <glyph glyph-name="section" unicode="&#xa7;" horiz-adv-x="335" 
d="M175 82c-43 -23 -87 -47 -130 -70h261c-43 23 -88 47 -131 70zM23 172c-3 6 -1 8 4 5c44 -24 88 -47 132 -71c40 22 81 43 121 65l-282 152c-2 1 -22 18 -15 22l162 87l-108 58c-2 1 -22 17 -15 21l123 66l-147 79c-5 3 -13 11 -15 17c-2 4 0 5 2 5h321l-269 145
c-2 1 -22 18 -15 22l123 66l-147 79c-3 2 -7 5 -10 9c-5 7 -7 13 -3 13h347c4 0 20 -15 20 -21c0 -1 0 -2 -1 -2l-161 -87l107 -58c5 -3 12 -10 15 -16s0 -8 -5 -5c-44 24 -88 47 -132 71c-40 -22 -81 -43 -121 -65l282 -152c2 -1 22 -18 15 -22l-161 -87l107 -58
c4 -2 21 -18 15 -21l-122 -66l146 -79c3 -2 8 -6 11 -10c5 -7 7 -12 3 -12h-321l268 -145c4 -2 21 -19 15 -22l-122 -66l146 -79c5 -3 13 -10 15 -16c2 -4 1 -6 -1 -6h-348c-4 0 -11 6 -16 13c-4 5 -5 9 -3 10l162 87l-108 58c-5 3 -11 10 -14 16zM159 918
c43 23 87 47 130 70h-260c43 -23 87 -47 130 -70zM175 561l-121 -65l105 -57l121 65zM45 345h261l-131 70zM159 585l130 70h-260z" />
    <glyph glyph-name="braceright" unicode="}" horiz-adv-x="170" 
d="M-327 1005c-3 6 -1 8 4 5l309 -166c5 -3 16 -13 16 -20v-322l139 -75c2 -1 21 -18 14 -22l-153 -82v-332c0 -1 0 -2 -1 -2l-309 -167h-1c-6 0 -20 15 -20 21c0 1 0 2 1 2l308 166v332c0 1 0 2 1 2l142 76l-127 69c-7 4 -16 14 -16 19v323l-293 158c-5 3 -11 9 -14 15z
" />
    <glyph glyph-name="Ograve" unicode="&#xd2;" horiz-adv-x="367" 
d="M175 106c44 24 88 47 132 71v655c-39 21 -77 41 -116 62c-44 -24 -88 -47 -132 -71v-655c39 -21 77 -41 116 -62zM175 918c43 23 87 47 130 70h-260c43 -23 87 -47 130 -70zM191 82c-43 -23 -87 -47 -130 -70h261c-43 23 -88 47 -131 70zM206 902l107 -58
c5 -3 16 -13 16 -20v-667c0 -1 0 -2 -1 -2l-122 -66l146 -79c3 -2 8 -5 11 -9c5 -7 7 -13 3 -13h-348c-4 0 -19 15 -19 21c0 1 0 2 1 2l161 87l-108 58c-5 3 -16 13 -16 20v667c0 1 0 2 1 2l123 66l-147 79c-3 2 -7 5 -10 9c-5 7 -7 13 -3 13h347c4 0 20 -15 20 -21
c0 -1 0 -2 -1 -2zM235 1258c6 -4 20 -27 3 -16l-107 83c-6 4 -11 13 -12 17s3 3 9 -1z" />
    <glyph glyph-name="uacute" unicode="&#xfa;" 
d="M183 82c-43 -23 -87 -47 -130 -70h261c-43 23 -88 47 -131 70zM40 507c6 -5 11 -12 11 -16v-323c39 -21 77 -41 116 -62c44 24 88 47 132 71v332c0 4 5 3 11 -2s11 -12 11 -16v-334c0 -1 0 -2 -1 -2l-122 -66l146 -79c5 -3 13 -10 15 -16c2 -4 1 -6 -1 -6h-348
c-4 0 -11 6 -16 13c-4 5 -5 9 -3 10l162 87l-108 58c-7 4 -16 15 -16 20v333c0 4 5 3 11 -2zM219 844h2c6 0 19 -14 19 -20c0 -1 0 -2 -1 -2l-107 -83h-2c-6 0 -19 14 -19 20c0 1 0 2 1 2z" />
    <glyph glyph-name="scaron" unicode="&#x161;" 
d="M183 82c-43 -23 -87 -47 -130 -70h261c-43 23 -88 47 -131 70zM167 418c43 23 87 47 130 70h-260c43 -23 87 -47 130 -70zM153 98l-108 58c-5 3 -11 10 -14 16s-1 8 4 5c44 -24 88 -47 132 -71l123 66l-246 152c-4 3 -19 18 -14 21l123 66l-147 79c-5 3 -13 10 -15 16
c-2 4 0 6 2 6h347c4 0 11 -6 16 -13c4 -5 5 -9 3 -10l-161 -87l107 -58c5 -3 12 -10 15 -16s0 -8 -5 -5c-44 24 -88 47 -132 71c-41 -22 -81 -44 -122 -66l245 -152c3 -2 20 -18 14 -21l-122 -66l146 -79c3 -2 8 -5 11 -9c5 -7 7 -13 3 -13h-348c-4 0 -20 15 -20 21
c0 1 0 2 1 2zM114 845c4 -1 11 -8 15 -14l41 -63l48 76c0 1 1 1 2 1c6 0 22 -18 19 -22l-53 -84c-3 -5 -16 8 -19 13l-53 84c-4 6 -4 10 0 9z" />
    <glyph glyph-name="hungarumlaut" unicode="&#x2dd;" horiz-adv-x="238" 
d="M94 1011h2c6 0 20 -14 20 -20c0 -1 0 -2 -1 -2l-94 -83h-2c-6 0 -19 14 -19 20c0 1 0 2 1 2zM141 906h-2c-6 0 -19 14 -19 20c0 1 0 2 1 2l94 83h2c6 0 19 -14 19 -20c0 -1 0 -2 -1 -2z" />
    <glyph glyph-name="Scedilla" unicode="&#x15e;" horiz-adv-x="335" 
d="M159 918c43 23 87 47 130 70h-260c43 -23 87 -47 130 -70zM175 82c-43 -23 -87 -47 -130 -70h261c-43 23 -88 47 -131 70zM190 902l107 -58c5 -3 12 -10 15 -16s0 -8 -5 -5c-44 24 -88 47 -132 71c-44 -24 -88 -47 -132 -71v-162l265 -327c3 -3 5 -8 5 -10v-167
c0 -1 0 -2 -1 -2l-122 -66l146 -79c5 -3 13 -10 15 -16c2 -4 1 -6 -1 -6h-161l78 -64c5 -4 17 -19 10 -19h-175l114 -61c5 -3 15 -13 15 -20v-83c0 -1 0 -2 -1 -2l-40 -22l73 -40c3 -2 8 -5 11 -9c5 -7 7 -13 3 -13h-202c-4 0 -20 15 -20 21c0 1 0 2 1 2l89 48l-26 14
c-5 3 -12 9 -15 15s0 8 5 5c17 -9 33 -18 50 -27c17 9 34 19 51 28v71l-139 74c-2 1 -22 22 -13 22h188l-73 60h-171c-4 0 -11 6 -16 13c-4 5 -5 9 -3 10l162 87l-108 58c-5 3 -11 10 -14 16s-1 8 4 5c44 -24 88 -47 132 -71c44 24 88 47 132 71v162l-264 327
c-3 4 -6 8 -6 10v167c0 1 0 2 1 2l123 66l-147 79c-3 2 -7 5 -10 9c-5 7 -7 13 -3 13h347c4 0 20 -15 20 -21c0 -1 0 -2 -1 -2zM175 -291c-19 -10 -38 -21 -57 -31h115c-19 10 -39 21 -58 31z" />
    <glyph glyph-name="Ecaron" unicode="&#x11a;" horiz-adv-x="359" 
d="M65 -12c-4 0 -19 13 -19 21v1000c0 1 1 3 2 3h270c3 0 9 -6 14 -12s6 -12 3 -12h-268v-476h251c3 0 9 -6 14 -12s6 -12 3 -12h-268v-476h251c3 0 9 -6 14 -12s6 -12 3 -12h-270zM130 1345c4 -1 12 -8 16 -14l40 -63l48 76c0 1 1 1 2 1c6 0 22 -18 19 -22l-53 -84
c-3 -5 -16 8 -19 13l-53 84c-4 6 -4 10 0 9z" />
    <glyph glyph-name="ij" unicode="&#x133;" horiz-adv-x="259" 
d="M-89 -511h-1c-6 0 -20 14 -20 20c0 1 0 2 1 2l308 166v832c0 4 5 3 11 -2s10 -12 10 -16v-834c0 -1 1 -2 0 -2zM210 776c-6 5 -11 13 -11 17v50c0 4 5 2 11 -3s11 -12 11 -16v-50c0 -4 -5 -3 -11 2zM48 -7c-6 5 -11 13 -11 17v500c0 4 5 2 11 -3s11 -13 11 -17v-500
c0 -4 -5 -2 -11 3zM48 776c-6 5 -11 13 -11 17v50c0 4 5 2 11 -3s11 -12 11 -16v-50c0 -4 -5 -3 -11 2z" />
    <glyph glyph-name="nacute" unicode="&#x144;" horiz-adv-x="359" 
d="M175 418c43 23 87 47 130 70h-246v-7c39 -21 77 -42 116 -63zM206 402l107 -58c5 -3 16 -13 16 -20v-333c0 -4 -5 -3 -11 2s-11 12 -11 16v323c-39 21 -77 41 -116 62c-44 -24 -88 -47 -132 -71v-333c0 -4 -5 -2 -11 3s-11 13 -11 17v467l-23 13c-3 2 -7 5 -10 9
c-5 7 -7 13 -3 13h347c4 0 20 -15 20 -21c0 -1 0 -2 -1 -2zM227 844h2c6 0 19 -14 19 -20c0 -1 0 -2 -1 -2l-107 -83h-2c-6 0 -19 14 -19 20c0 1 0 2 1 2zM59 356l102 55l-102 54v-109z" />
    <glyph glyph-name="aring" unicode="&#xe5;" horiz-adv-x="359" 
d="M167 418c43 23 87 47 130 70h-260c43 -23 87 -47 130 -70zM183 82c-43 -23 -87 -47 -130 -70h246v7c-39 21 -77 42 -116 63zM183 709c-19 -10 -38 -21 -57 -31h115c-19 10 -39 21 -58 31zM167 874c19 10 38 21 57 31h-114c19 -10 38 -21 57 -31zM167 733
c17 9 34 19 51 28v71c-12 6 -23 12 -35 18l-51 -27v-71c12 -6 23 -13 35 -19zM198 717l73 -40c5 -3 13 -10 15 -16c2 -4 1 -6 -1 -6h-202c-4 0 -11 6 -16 13c-4 5 -4 9 -2 10l88 48l-26 14c-7 4 -16 14 -16 19v84c0 1 0 2 1 2l41 22l-74 39c-5 3 -13 11 -15 17c-2 4 0 5 2 5
h201c4 0 11 -5 16 -12c4 -5 5 -10 3 -11l-88 -47l26 -14c7 -4 15 -15 15 -20v-83c0 -1 1 -2 0 -2zM-7 512h347c4 0 20 -15 20 -21c0 -1 0 -2 -1 -2l-38 -21v-445l23 -13c3 -2 8 -5 11 -9c5 -7 7 -13 3 -13h-348c-4 0 -20 15 -20 21c0 1 0 2 1 2l162 87l-108 58
c-5 3 -16 13 -16 20v167c0 1 0 2 1 2l123 66l-147 79c-3 2 -7 5 -10 9c-5 7 -7 13 -3 13zM299 347v110l-101 -55zM299 332c-39 21 -77 41 -116 62c-44 -24 -88 -47 -132 -71v-155c39 -21 77 -41 116 -62c44 24 88 47 132 71v155zM299 144l-101 -55l101 -54v109z" />
    <glyph glyph-name="ecircumflex" unicode="&#xea;" 
d="M183 82c-43 -23 -87 -47 -130 -70h261c-43 23 -88 47 -131 70zM167 418c43 23 87 47 130 70h-260c43 -23 87 -47 130 -70zM183 394c-30 -16 -61 -33 -91 -49h183c-30 16 -62 33 -92 49zM132 739c0 -1 -1 -1 -2 -1c-6 0 -22 19 -19 23l54 83c3 4 15 -8 18 -13l54 -83
c4 -6 3 -10 -1 -9s-11 7 -15 13l-40 63zM305 344c5 -3 17 -12 16 -20c0 -1 -1 -2 -2 -2h-268v-154c39 -21 77 -41 116 -62c44 24 89 48 133 72h1c6 0 20 -15 20 -21c0 -1 0 -2 -1 -2l-122 -66l146 -79c5 -3 13 -10 15 -16c2 -4 1 -6 -1 -6h-348c-4 0 -11 6 -16 13
c-4 5 -5 9 -3 10l162 87l-108 58c-7 4 -16 15 -16 20v167c0 1 0 2 1 2l123 66l-147 79c-5 3 -13 10 -15 16c-2 4 0 6 2 6h347c4 0 11 -6 16 -13c4 -5 5 -9 3 -10l-161 -87z" />
    <glyph glyph-name="Lslash" unicode="&#x141;" horiz-adv-x="348" 
d="M81 -12c-4 0 -19 13 -19 21v540l-44 -60c0 -1 -1 -1 -2 -1c-6 0 -21 19 -18 23l64 88v410c0 4 4 3 10 -2s11 -12 11 -16v-362l36 48c0 1 1 1 2 1c6 0 21 -18 18 -22l-56 -77v-567h239c3 0 9 -6 14 -12s6 -12 3 -12h-258z" />
    <glyph glyph-name="backslash" unicode="\" horiz-adv-x="227" 
d="M31 1008c6 -5 11 -12 12 -16l161 -1000c1 -4 -3 -5 -9 0s-11 12 -12 16l-162 1000c-1 4 4 5 10 0z" />
    <glyph glyph-name="ucircumflex" unicode="&#xfb;" 
d="M183 82c-43 -23 -87 -47 -130 -70h261c-43 23 -88 47 -131 70zM40 507c6 -5 11 -12 11 -16v-323c39 -21 77 -41 116 -62c44 24 88 47 132 71v332c0 4 5 3 11 -2s11 -12 11 -16v-334c0 -1 0 -2 -1 -2l-122 -66l146 -79c5 -3 13 -10 15 -16c2 -4 1 -6 -1 -6h-348
c-4 0 -11 6 -16 13c-4 5 -5 9 -3 10l162 87l-108 58c-7 4 -16 15 -16 20v333c0 4 5 3 11 -2zM132 739c0 -1 -1 -1 -2 -1c-6 0 -22 19 -19 23l54 83c3 4 15 -8 18 -13l54 -83c4 -6 3 -10 -1 -9s-11 7 -15 13l-40 63z" />
    <glyph glyph-name="dcaron" unicode="&#x10f;" horiz-adv-x="359" 
d="M183 82c-43 -23 -87 -47 -130 -70h246v7c-39 21 -77 42 -116 63zM167 418c43 23 87 47 130 70h-260c43 -23 87 -47 130 -70zM183 394c-44 -24 -88 -47 -132 -71v-155c39 -21 77 -41 116 -62c44 24 88 47 132 71v155c-39 21 -77 41 -116 62zM310 1007c6 -5 11 -13 11 -17
v-478h19c4 0 11 -6 16 -13c4 -5 5 -9 3 -10l-38 -21v-445l23 -13c5 -3 13 -10 15 -16c2 -4 1 -6 -1 -6h-348c-4 0 -11 6 -16 13c-4 5 -5 9 -3 10l162 87l-108 58c-7 4 -16 15 -16 20v167c0 1 0 2 1 2l123 66l-147 79c-5 3 -13 10 -15 16c-2 4 0 6 2 6h306v498c0 4 5 2 11 -3
zM387 1005c6 -6 10 -12 9 -15l-43 -167c-1 -3 -6 -1 -12 5s-10 12 -9 15l43 167c1 3 6 1 12 -5zM299 144l-101 -55l101 -54v109zM299 457l-101 -55l101 -55v110z" />
    <glyph glyph-name="ograve" unicode="&#xf2;" 
d="M167 106c44 24 88 47 132 71v155c-39 21 -77 41 -116 62c-44 -24 -88 -47 -132 -71v-155c39 -21 77 -41 116 -62zM183 82c-43 -23 -87 -47 -130 -70h261c-43 23 -88 47 -131 70zM167 418c43 23 87 47 130 70h-260c43 -23 87 -47 130 -70zM198 89l146 -79
c5 -3 13 -10 15 -16c2 -4 1 -6 -1 -6h-348c-4 0 -11 6 -16 13c-4 5 -5 9 -3 10l162 87l-108 58c-7 4 -16 15 -16 20v167c0 1 0 2 1 2l123 66l-147 79c-5 3 -13 10 -15 16c-2 4 0 6 2 6h347c4 0 11 -6 16 -13c4 -5 5 -9 3 -10l-161 -87l107 -58c7 -4 16 -15 16 -20v-167
c0 -1 0 -2 -1 -2zM227 758c6 -4 20 -27 3 -16l-107 83c-6 4 -11 13 -12 17s3 3 9 -1z" />
    <glyph glyph-name="eight" unicode="8" 
d="M183 894c-44 -24 -88 -47 -132 -71v-155c39 -21 77 -41 116 -62c44 24 88 47 132 71v155c-39 21 -77 41 -116 62zM183 582c-43 -23 -87 -47 -130 -70h261c-43 23 -88 47 -131 70zM167 918c43 23 87 47 130 70h-260c43 -23 87 -47 130 -70zM153 598l-108 58
c-5 3 -16 13 -16 20v167c0 1 0 2 1 2l123 66l-147 79c-3 2 -7 5 -10 9c-5 7 -7 13 -3 13h347c4 0 20 -15 20 -21c0 -1 0 -2 -1 -2l-161 -87l107 -58c5 -3 16 -13 16 -20v-167c0 -1 0 -2 -1 -2l-122 -66l146 -79c2 -1 22 -17 15 -21l-161 -87l107 -58c5 -3 16 -13 16 -20
v-167c0 -1 0 -2 -1 -2l-122 -66l146 -79c3 -2 8 -5 11 -9c5 -7 7 -13 3 -13h-348c-4 0 -20 15 -20 21c0 1 0 2 1 2l162 87l-108 58c-5 3 -16 13 -16 20v167c0 1 0 2 1 2l123 66l-147 79c-2 1 -22 17 -15 21zM183 394c-44 -24 -88 -47 -132 -71v-155c39 -21 77 -41 116 -62
c44 24 88 47 132 71v155c-39 21 -77 41 -116 62zM167 418c43 23 87 47 130 70h-260c43 -23 87 -47 130 -70zM183 82c-43 -23 -87 -47 -130 -70h261c-43 23 -88 47 -131 70z" />
    <glyph glyph-name="quoteright" unicode="&#x2019;" horiz-adv-x="92" 
d="M69 1005c6 -6 10 -12 9 -15l-43 -167c-1 -3 -6 -1 -12 5s-10 12 -9 15l42 167c1 3 7 1 13 -5z" />
    <glyph glyph-name="quotedblright" unicode="&#x201d;" horiz-adv-x="173" 
d="M64 1010c0 1 1 1 2 1c5 0 21 -18 20 -21l-43 -167c-1 -3 -6 -1 -12 5s-10 12 -9 15zM141 1005c6 -6 10 -12 9 -15l-43 -167c-1 -3 -6 -1 -12 5s-10 12 -9 15l43 167c1 3 6 1 12 -5z" />
    <glyph glyph-name="J" unicode="J" horiz-adv-x="335" 
d="M159 82c-43 -23 -87 -47 -130 -70h261c-43 23 -88 47 -131 70zM7 172c-3 6 -1 8 4 5c44 -24 88 -47 132 -71c44 24 88 47 132 71v832c0 4 5 3 11 -2s11 -12 11 -16v-834c0 -1 0 -2 -1 -2l-123 -66l147 -79c5 -3 13 -10 15 -16c2 -4 1 -6 -1 -6h-348c-4 0 -11 6 -16 13
c-4 5 -5 9 -3 10l162 87l-108 58c-5 3 -11 10 -14 16z" />
    <glyph glyph-name="igrave" unicode="&#xec;" horiz-adv-x="103" 
d="M51 -7c-6 5 -11 13 -11 17v500c0 4 5 2 11 -3s11 -13 11 -17v-500c0 -4 -5 -2 -11 3zM103 758c6 -4 20 -27 3 -16l-107 83c-4 3 -12 14 -12 18c0 1 0 2 1 2s4 -1 8 -4z" />
    <glyph glyph-name="ogonek" unicode="&#x2db;" horiz-adv-x="238" 
d="M126 -291c-19 -10 -38 -21 -57 -31h114c-19 10 -38 21 -57 31zM110 -267c17 9 35 19 52 28h1c5 0 19 -14 19 -20c0 -1 0 -2 -1 -2l-41 -22l74 -40c5 -3 13 -10 15 -16c2 -4 0 -6 -2 -6h-201c-4 0 -11 6 -16 13c-4 5 -5 9 -3 10l89 48l-27 14c-7 4 -15 14 -15 19v85
l107 167c0 1 1 1 2 1c6 0 22 -19 19 -23l-107 -166v-71c12 -6 23 -13 35 -19z" />
    <glyph glyph-name="udieresis" unicode="&#xfc;" 
d="M183 82c-43 -23 -87 -47 -130 -70h261c-43 23 -88 47 -131 70zM40 507c6 -5 11 -12 11 -16v-323c39 -21 77 -41 116 -62c44 24 88 47 132 71v332c0 4 5 3 11 -2s11 -12 11 -16v-334c0 -1 0 -2 -1 -2l-122 -66l146 -79c5 -3 13 -10 15 -16c2 -4 1 -6 -1 -6h-348
c-4 0 -11 6 -16 13c-4 5 -5 9 -3 10l162 87l-108 58c-7 4 -16 15 -16 20v333c0 4 5 3 11 -2zM108 776c-6 5 -11 13 -11 17v50c0 4 5 2 11 -3s11 -12 11 -16v-50c0 -4 -5 -3 -11 2zM242 776c-6 5 -11 13 -11 17v50c0 4 5 2 11 -3s11 -12 11 -16v-50c0 -4 -5 -3 -11 2z" />
    <glyph glyph-name="eacute" unicode="&#xe9;" 
d="M183 82c-43 -23 -87 -47 -130 -70h261c-43 23 -88 47 -131 70zM167 418c43 23 87 47 130 70h-260c43 -23 87 -47 130 -70zM183 394c-30 -16 -61 -33 -91 -49h183c-30 16 -62 33 -92 49zM219 844h2c6 0 19 -14 19 -20c0 -1 0 -2 -1 -2l-107 -83h-2c-6 0 -19 14 -19 20
c0 1 0 2 1 2zM305 344c5 -3 17 -12 16 -20c0 -1 -1 -2 -2 -2h-268v-154c39 -21 77 -41 116 -62c44 24 89 48 133 72h1c6 0 20 -15 20 -21c0 -1 0 -2 -1 -2l-122 -66l146 -79c5 -3 13 -10 15 -16c2 -4 1 -6 -1 -6h-348c-4 0 -11 6 -16 13c-4 5 -5 9 -3 10l162 87l-108 58
c-7 4 -16 15 -16 20v167c0 1 0 2 1 2l123 66l-147 79c-5 3 -13 10 -15 16c-2 4 0 6 2 6h347c4 0 11 -6 16 -13c4 -5 5 -9 3 -10l-161 -87z" />
    <glyph glyph-name="ccedilla" unicode="&#xe7;" 
d="M183 82c-43 -23 -87 -47 -130 -70h261c-43 23 -88 47 -131 70zM167 418c43 23 87 47 130 70h-260c43 -23 87 -47 130 -70zM183 394c-44 -24 -88 -47 -132 -71v-155c39 -21 77 -41 116 -62c44 24 89 48 133 72h1c6 0 20 -15 20 -21c0 -1 0 -2 -1 -2l-122 -66l146 -79
c5 -3 13 -10 15 -16c2 -4 1 -6 -1 -6h-161l78 -64c5 -4 17 -19 10 -19h-175l114 -61c5 -3 15 -13 15 -20v-83c0 -1 1 -2 0 -2l-41 -22l73 -40c3 -2 8 -5 11 -9c5 -7 7 -13 3 -13h-202c-4 0 -19 15 -19 21c0 1 0 2 1 2l88 48l-26 14c-5 3 -12 9 -15 15s0 8 5 5
c17 -9 33 -18 50 -27c17 9 34 19 51 28v71l-139 74c-2 1 -22 22 -13 22h188l-73 60h-171c-4 0 -11 6 -16 13c-4 5 -5 9 -3 10l162 87l-108 58c-7 4 -16 15 -16 20v167c0 1 0 2 1 2l123 66l-147 79c-5 3 -13 10 -15 16c-2 4 0 6 2 6h347c4 0 11 -6 16 -13c4 -5 5 -9 3 -10
l-161 -87l107 -58c5 -3 12 -10 15 -16s0 -8 -5 -5c-44 24 -88 47 -132 71zM183 -291c-19 -10 -38 -21 -57 -31h115c-19 10 -39 21 -58 31z" />
    <glyph glyph-name="ecaron" unicode="&#x11b;" 
d="M183 82c-43 -23 -87 -47 -130 -70h261c-43 23 -88 47 -131 70zM167 418c43 23 87 47 130 70h-260c43 -23 87 -47 130 -70zM183 394c-30 -16 -61 -33 -91 -49h183c-30 16 -62 33 -92 49zM114 845c4 -1 11 -8 15 -14l41 -63l48 76c0 1 1 1 2 1c6 0 22 -18 19 -22l-53 -84
c-3 -5 -16 8 -19 13l-53 84c-4 6 -4 10 0 9zM305 344c5 -3 17 -12 16 -20c0 -1 -1 -2 -2 -2h-268v-154c39 -21 77 -41 116 -62c44 24 89 48 133 72h1c6 0 20 -15 20 -21c0 -1 0 -2 -1 -2l-122 -66l146 -79c5 -3 13 -10 15 -16c2 -4 1 -6 -1 -6h-348c-4 0 -11 6 -16 13
c-4 5 -5 9 -3 10l162 87l-108 58c-7 4 -16 15 -16 20v167c0 1 0 2 1 2l123 66l-147 79c-5 3 -13 10 -15 16c-2 4 0 6 2 6h347c4 0 11 -6 16 -13c4 -5 5 -9 3 -10l-161 -87z" />
    <glyph glyph-name="idieresis" unicode="&#xef;" horiz-adv-x="103" 
d="M51 -7c-6 5 -11 13 -11 17v500c0 4 5 2 11 -3s11 -13 11 -17v-500c0 -4 -5 -2 -11 3zM-16 776c-6 5 -11 13 -11 17v50c0 4 5 2 11 -3s11 -12 11 -16v-50c0 -4 -5 -3 -11 2zM118 776c-6 5 -11 13 -11 17v50c0 4 5 2 11 -3s11 -12 11 -16v-50c0 -4 -5 -3 -11 2z" />
    <glyph glyph-name="grave" unicode="`" horiz-adv-x="238" 
d="M182 908c1 -4 -3 -3 -9 1l-107 83c-6 4 -20 27 -3 16l107 -83c6 -4 11 -13 12 -17z" />
    <glyph glyph-name="asterisk" unicode="*" horiz-adv-x="243" 
d="M37 912c-5 5 -7 10 -7 13c0 2 1 3 3 3s5 -2 10 -7l67 -69v158c0 4 5 2 11 -3s11 -13 11 -17v-124l60 62s1 1 2 1c5 0 19 -15 19 -21c0 -1 -1 -2 -1 -2l-77 -80l69 -72c6 -6 9 -13 8 -15s-7 1 -13 7l-67 69v-158c0 -4 -5 -2 -11 3s-11 12 -11 16v125l-60 -62s-1 -1 -2 -1
c-5 0 -19 15 -19 21c0 1 1 2 1 2l77 80z" />
    <glyph glyph-name="i" unicode="i" horiz-adv-x="103" 
d="M51 -7c-6 5 -11 13 -11 17v500c0 4 5 2 11 -3s11 -13 11 -17v-500c0 -4 -5 -2 -11 3zM51 776c-6 5 -11 13 -11 17v50c0 4 5 2 11 -3s11 -12 11 -16v-50c0 -4 -5 -3 -11 2z" />
    <glyph glyph-name="equal" unicode="=" horiz-adv-x="281" 
d="M26 333c-5 6 -6 12 -3 12h216c3 0 10 -6 15 -12s6 -11 3 -11h-216c-3 0 -10 5 -15 11zM26 500c-5 6 -6 12 -3 12h216c3 0 10 -6 15 -12s6 -12 3 -12h-216c-3 0 -10 6 -15 12z" />
    <glyph glyph-name="cedilla" unicode="&#xb8;" horiz-adv-x="238" 
d="M126 -291c-19 -10 -38 -21 -57 -31h114c-19 10 -38 21 -57 31zM96 -274l-27 14c-5 3 -11 9 -14 15s-1 8 4 5l51 -27c17 9 34 19 51 28v71l-139 74c-2 1 -22 22 -14 22h189l-78 65c-6 5 -12 12 -12 16s4 3 10 -2l101 -83c5 -4 16 -19 9 -19h-175l115 -61
c5 -3 15 -13 15 -20v-83c0 -1 0 -2 -1 -2l-41 -22l74 -40c3 -2 7 -5 10 -9c5 -7 7 -13 3 -13h-201c-4 0 -20 15 -20 21c0 1 0 2 1 2z" />
    <glyph glyph-name="asciicircum" unicode="^" horiz-adv-x="238" 
d="M48 906c0 0 -1 -1 -2 -1c-6 0 -20 16 -20 22c0 1 1 1 1 1l81 83c2 2 8 -2 13 -7l80 -83c6 -6 10 -13 8 -15s-7 1 -13 7l-71 73z" />
    <glyph glyph-name="rcaron" unicode="&#x159;" horiz-adv-x="235" 
d="M48 507c6 -5 11 -13 11 -17v-134l246 132h-87c-3 0 -10 6 -15 12s-5 12 -2 12h147c4 0 20 -15 20 -21c0 -1 0 -2 -1 -2l-308 -166v-333c0 -4 -5 -2 -11 3s-11 13 -11 17v500c0 4 5 2 11 -3zM68 845c4 -1 11 -8 15 -14l41 -63l48 76c0 1 1 1 2 1c6 0 22 -18 19 -22
l-54 -84c-3 -5 -15 8 -18 13l-54 84c-4 6 -3 10 1 9z" />
    <glyph glyph-name="tilde" unicode="&#x2dc;" horiz-adv-x="238" 
d="M48 906c0 -1 -1 -1 -2 -1c-6 0 -22 18 -19 22l54 84c3 4 15 -8 18 -13l40 -63l49 76c0 1 1 1 2 1c6 0 22 -19 19 -23l-54 -83c-3 -5 -15 8 -18 13l-40 63z" />
    <glyph glyph-name="underscore" unicode="_" horiz-adv-x="319" 
d="M18 0c-5 6 -6 12 -3 12h270c3 0 10 -6 15 -12s6 -12 3 -12h-270c-3 0 -10 6 -15 12z" />
    <glyph glyph-name="guillemotright" unicode="&#xbb;" horiz-adv-x="165" 
d="M31 78c-6 6 -10 12 -9 15l42 166l-42 165c-1 5 2 5 8 1s12 -11 13 -16l43 -167v-2l-43 -167c-1 -3 -6 -1 -12 5zM95 78c-6 6 -10 12 -9 15l43 166l-43 165c-1 5 2 5 8 1s12 -11 13 -16l43 -167v-2l-43 -167c-1 -3 -6 -1 -12 5z" />
    <glyph glyph-name="acircumflex" unicode="&#xe2;" horiz-adv-x="359" 
d="M167 418c43 23 87 47 130 70h-260c43 -23 87 -47 130 -70zM183 82c-43 -23 -87 -47 -130 -70h246v7c-39 21 -77 42 -116 63zM132 739c0 -1 -1 -1 -2 -1c-6 0 -22 19 -19 23l54 83c3 4 15 -8 18 -13l54 -83c4 -6 3 -10 -1 -9s-11 7 -15 13l-40 63zM-7 512h347
c4 0 20 -15 20 -21c0 -1 0 -2 -1 -2l-38 -21v-445l23 -13c3 -2 8 -5 11 -9c5 -7 7 -13 3 -13h-348c-4 0 -20 15 -20 21c0 1 0 2 1 2l162 87l-108 58c-5 3 -16 13 -16 20v167c0 1 0 2 1 2l123 66l-147 79c-3 2 -7 5 -10 9c-5 7 -7 13 -3 13zM299 347v110l-101 -55zM299 332
c-39 21 -77 41 -116 62c-44 -24 -88 -47 -132 -71v-155c39 -21 77 -41 116 -62c44 24 88 47 132 71v155zM299 144l-101 -55l101 -54v109z" />
    <glyph glyph-name="Aacute" unicode="&#xc1;" horiz-adv-x="302" 
d="M15 -6c-6 5 -10 13 -10 16l135 1000c0 3 7 1 13 -5c5 -5 9 -11 9 -14l135 -1000c1 -4 -4 -4 -10 1s-11 13 -12 17l-64 479h-117l-67 -498c0 -3 -6 -1 -12 4zM195 1344h2c6 0 19 -14 19 -20c0 -1 0 -2 -1 -2l-108 -83h-2c-6 0 -19 14 -19 20c0 1 0 2 1 2zM208 512l-56 408
l-55 -408h111z" />
    <glyph glyph-name="Idieresis" unicode="&#xcf;" horiz-adv-x="113" 
d="M56 -7c-6 5 -11 13 -11 17v1000c0 4 5 2 11 -3s11 -13 11 -17v-1000c0 -4 -5 -2 -11 3zM-11 1276c-6 5 -11 13 -11 17v50c0 4 5 2 11 -3s11 -12 11 -16v-50c0 -4 -5 -3 -11 2zM123 1276c-6 5 -11 13 -11 17v50c0 4 5 2 11 -3s11 -12 11 -16v-50c0 -4 -5 -3 -11 2z" />
    <glyph glyph-name="six" unicode="6" horiz-adv-x="359" 
d="M175 106c44 24 88 47 132 71v155c-39 21 -77 41 -116 62c-44 -24 -88 -47 -132 -71v-155c39 -21 77 -41 116 -62zM191 82c-43 -23 -87 -47 -130 -70h261c-43 23 -88 47 -131 70zM175 918c43 23 87 47 130 70h-260c43 -23 87 -47 130 -70zM161 411l-102 55v-110zM59 488
v-7c39 -21 77 -42 116 -63c43 23 87 47 130 70h-246zM191 894c-44 -24 -88 -47 -132 -71v-311h289c4 0 11 -6 16 -13c4 -5 5 -9 3 -10l-161 -87l107 -58c7 -4 16 -15 16 -20v-167c0 -1 0 -2 -1 -2l-122 -66l146 -79c5 -3 13 -10 15 -16c2 -4 1 -6 -1 -6h-348
c-4 0 -11 6 -16 13c-4 5 -4 9 -2 10l161 87l-108 58c-7 4 -16 15 -16 20v301l-23 13c-5 3 -13 10 -15 16c-2 4 0 6 2 6h36v331c0 1 0 2 1 2l123 66l-147 79c-5 3 -13 10 -15 16c-2 4 0 6 2 6h347c4 0 11 -6 16 -13c4 -5 5 -9 3 -10l-161 -87l107 -58c5 -3 12 -10 15 -16
s0 -8 -5 -5c-44 24 -88 47 -132 71z" />
    <glyph glyph-name="dotlessj" unicode="&#x237;" horiz-adv-x="111" 
d="M-238 -511h-1c-6 0 -20 14 -20 20c0 1 0 2 1 2l308 166v832c0 4 5 3 11 -2s11 -12 11 -16v-834c0 -1 0 -2 -1 -2z" />
    <glyph glyph-name="Thorn" unicode="&#xde;" horiz-adv-x="270" 
d="M0 -7c-6 5 -11 13 -11 17v228h-19c-4 0 -20 15 -20 21c0 1 0 2 1 2l38 21v445l-23 13c-3 2 -7 5 -10 9c-5 7 -8 13 -4 13h37v248c0 4 5 2 11 -3s11 -13 11 -17v-259l254 -137c5 -3 16 -13 16 -20v-167c0 -1 0 -2 -1 -2l-269 -145v-270c0 -4 -5 -2 -11 3zM11 715v-422
l248 134v155z" />
    <glyph glyph-name="dotlessi" unicode="&#x131;" horiz-adv-x="103" 
d="M51 -7c-6 5 -11 13 -11 17v500c0 4 5 2 11 -3s11 -13 11 -17v-500c0 -4 -5 -2 -11 3z" />
    <glyph glyph-name="sacute" unicode="&#x15b;" 
d="M183 82c-43 -23 -87 -47 -130 -70h261c-43 23 -88 47 -131 70zM167 418c43 23 87 47 130 70h-260c43 -23 87 -47 130 -70zM153 98l-108 58c-5 3 -11 10 -14 16s-1 8 4 5c44 -24 88 -47 132 -71l123 66l-246 152c-4 3 -19 18 -14 21l123 66l-147 79c-5 3 -13 10 -15 16
c-2 4 0 6 2 6h347c4 0 11 -6 16 -13c4 -5 5 -9 3 -10l-161 -87l107 -58c5 -3 12 -10 15 -16s0 -8 -5 -5c-44 24 -88 47 -132 71c-41 -22 -81 -44 -122 -66l245 -152c3 -2 20 -18 14 -21l-122 -66l146 -79c3 -2 8 -5 11 -9c5 -7 7 -13 3 -13h-348c-4 0 -20 15 -20 21
c0 1 0 2 1 2zM219 844h2c6 0 19 -14 19 -20c0 -1 0 -2 -1 -2l-107 -83h-2c-6 0 -19 14 -19 20c0 1 0 2 1 2z" />
    <glyph glyph-name="bracketleft" unicode="[" horiz-adv-x="154" 
d="M65 -178c-8 0 -19 17 -19 21v1166c0 1 1 3 2 3h81c3 0 10 -6 15 -12s5 -12 2 -12h-79v-1143h62c3 0 10 -6 15 -12s5 -11 2 -11h-81z" />
    <glyph glyph-name="Eng" unicode="&#x14a;" horiz-adv-x="324" 
d="M169 924c48 21 96 43 144 64h-262c40 -21 78 -43 118 -64zM203 85c-45 -24 -91 -49 -136 -73h271c-45 24 -90 49 -135 73zM186 109c42 23 85 45 127 68v655c-43 23 -84 45 -127 68c-58 -26 -117 -51 -175 -77v-809l161 87l-102 55c-5 3 -12 10 -15 16s0 8 5 5
c42 -23 84 -45 126 -68zM0 -7c-6 5 -11 13 -11 17v1000c0 4 5 2 11 -3s11 -13 11 -17v-136l143 64l-134 72c-5 3 -13 10 -15 16c-2 4 -1 6 1 6h359c4 0 11 -6 16 -13c4 -5 4 -9 2 -10l-182 -82l118 -63c7 -4 16 -15 16 -20v-667c0 -1 0 -2 -1 -2l-117 -63l152 -82
c5 -3 13 -10 15 -16c2 -4 0 -6 -2 -6h-358c-3 0 -9 4 -13 9v-7c0 -4 -5 -2 -11 3z" />
    <glyph glyph-name="acute" unicode="&#xb4;" horiz-adv-x="238" 
d="M162 1011h2c6 0 19 -14 19 -20c0 -1 0 -2 -1 -2l-108 -83h-2c-6 0 -19 14 -19 20c0 1 0 2 1 2z" />
    <glyph glyph-name="M" unicode="M" horiz-adv-x="437" 
d="M56 -7c-6 5 -10 12 -10 16v1000c0 4 5 3 11 -3c5 -4 9 -10 10 -13l148 -459l155 476c1 3 7 0 13 -6c5 -5 8 -10 8 -13v-1000c0 -4 -5 -3 -11 2s-10 12 -10 16v915l-141 -434c-5 -9 -21 17 -21 17l-141 435v-951c0 -4 -5 -3 -11 2z" />
    <glyph glyph-name="guilsinglleft" unicode="&#x2039;" horiz-adv-x="116" 
d="M77 75c-6 4 -11 11 -12 16l-43 167v2l43 167c1 3 6 1 12 -5s10 -12 9 -15l-43 -166l43 -165c1 -5 -3 -5 -9 -1z" />
    <glyph glyph-name="ntilde" unicode="&#xf1;" horiz-adv-x="359" 
d="M175 418c43 23 87 47 130 70h-246v-7c39 -21 77 -42 116 -63zM206 402l107 -58c5 -3 16 -13 16 -20v-333c0 -4 -5 -3 -11 2s-11 12 -11 16v323c-39 21 -77 41 -116 62c-44 -24 -88 -47 -132 -71v-333c0 -4 -5 -2 -11 3s-11 13 -11 17v467l-23 13c-3 2 -7 5 -10 9
c-5 7 -7 13 -3 13h347c4 0 20 -15 20 -21c0 -1 0 -2 -1 -2zM113 739c0 -1 -1 -1 -2 -1c-6 0 -22 19 -19 23l54 83c3 4 15 -8 18 -13l41 -63l48 76c0 1 1 1 2 1c6 0 22 -18 19 -22l-54 -84c-3 -5 -15 8 -18 13l-40 63zM59 356l102 55l-102 54v-109z" />
    <glyph glyph-name="cacute" unicode="&#x107;" 
d="M183 82c-43 -23 -87 -47 -130 -70h261c-43 23 -88 47 -131 70zM167 418c43 23 87 47 130 70h-260c43 -23 87 -47 130 -70zM183 394c-44 -24 -88 -47 -132 -71v-155c39 -21 77 -41 116 -62c44 24 89 48 133 72h1c6 0 20 -15 20 -21c0 -1 0 -2 -1 -2l-122 -66l146 -79
c5 -3 13 -10 15 -16c2 -4 1 -6 -1 -6h-348c-4 0 -11 6 -16 13c-4 5 -5 9 -3 10l162 87l-108 58c-7 4 -16 15 -16 20v167c0 1 0 2 1 2l123 66l-147 79c-5 3 -13 10 -15 16c-2 4 0 6 2 6h347c4 0 11 -6 16 -13c4 -5 5 -9 3 -10l-161 -87l107 -58c5 -3 12 -10 15 -16
s0 -8 -5 -5c-44 24 -88 47 -132 71zM219 844h2c6 0 19 -14 19 -20c0 -1 0 -2 -1 -2l-107 -83h-2c-6 0 -19 14 -19 20c0 1 0 2 1 2z" />
    <glyph glyph-name="Scaron" unicode="&#x160;" horiz-adv-x="335" 
d="M159 918c43 23 87 47 130 70h-260c43 -23 87 -47 130 -70zM175 82c-43 -23 -87 -47 -130 -70h261c-43 23 -88 47 -131 70zM190 902l107 -58c5 -3 12 -10 15 -16s0 -8 -5 -5c-44 24 -88 47 -132 71c-44 -24 -88 -47 -132 -71v-162l265 -327c3 -3 5 -8 5 -10v-167
c0 -1 0 -2 -1 -2l-122 -66l146 -79c5 -3 13 -10 15 -16c2 -4 1 -6 -1 -6h-348c-4 0 -11 6 -16 13c-4 5 -5 9 -3 10l162 87l-108 58c-5 3 -11 10 -14 16s-1 8 4 5c44 -24 88 -47 132 -71c44 24 88 47 132 71v162l-264 327c-3 4 -6 8 -6 10v167c0 1 0 2 1 2l123 66l-147 79
c-3 2 -7 5 -10 9c-5 7 -7 13 -3 13h347c4 0 20 -15 20 -21c0 -1 0 -2 -1 -2zM106 1345c4 -1 11 -8 15 -14l41 -63l48 76c0 1 1 1 2 1c6 0 22 -18 19 -22l-53 -84c-3 -5 -16 8 -19 13l-53 84c-4 6 -4 10 0 9z" />
    <glyph glyph-name="aacute" unicode="&#xe1;" horiz-adv-x="359" 
d="M167 418c43 23 87 47 130 70h-260c43 -23 87 -47 130 -70zM183 82c-43 -23 -87 -47 -130 -70h246v7c-39 21 -77 42 -116 63zM219 844h2c6 0 19 -14 19 -20c0 -1 0 -2 -1 -2l-107 -83h-2c-6 0 -19 14 -19 20c0 1 0 2 1 2zM-7 512h347c4 0 20 -15 20 -21c0 -1 0 -2 -1 -2
l-38 -21v-445l23 -13c3 -2 8 -5 11 -9c5 -7 7 -13 3 -13h-348c-4 0 -20 15 -20 21c0 1 0 2 1 2l162 87l-108 58c-5 3 -16 13 -16 20v167c0 1 0 2 1 2l123 66l-147 79c-3 2 -7 5 -10 9c-5 7 -7 13 -3 13zM299 347v110l-101 -55zM299 332c-39 21 -77 41 -116 62
c-44 -24 -88 -47 -132 -71v-155c39 -21 77 -41 116 -62c44 24 88 47 132 71v155zM299 144l-101 -55l101 -54v109z" />
    <glyph glyph-name="ncaron" unicode="&#x148;" horiz-adv-x="359" 
d="M175 418c43 23 87 47 130 70h-246v-7c39 -21 77 -42 116 -63zM206 402l107 -58c5 -3 16 -13 16 -20v-333c0 -4 -5 -3 -11 2s-11 12 -11 16v323c-39 21 -77 41 -116 62c-44 -24 -88 -47 -132 -71v-333c0 -4 -5 -2 -11 3s-11 13 -11 17v467l-23 13c-3 2 -7 5 -10 9
c-5 7 -7 13 -3 13h347c4 0 20 -15 20 -21c0 -1 0 -2 -1 -2zM122 845c4 -1 11 -8 15 -14l41 -63l48 76c0 1 1 1 2 1c6 0 22 -18 19 -22l-53 -84c-3 -5 -16 8 -19 13l-53 84c-4 6 -4 10 0 9zM59 356l102 55l-102 54v-109z" />
    <glyph glyph-name="Rcaron" unicode="&#x158;" horiz-adv-x="359" 
d="M67 966v-423l248 134v155zM48 1012c8 0 19 -17 19 -21v-10l254 -137c5 -3 16 -13 16 -20v-167c0 -1 0 -2 -1 -2c-90 -48 -179 -97 -269 -145v-80l267 -433c4 -6 3 -10 -1 -8s-11 8 -15 14l-251 406v-418c0 -4 -5 -3 -11 2s-10 12 -10 16v435l-37 59c-1 2 -3 7 -1 8l38 21
v445l-24 13c-3 2 -7 5 -10 9c-5 7 -7 13 -3 13h39zM117 1345c4 -1 11 -8 15 -14l40 -63l49 76c0 1 1 1 2 1c6 0 22 -18 19 -22l-54 -84c-3 -5 -15 8 -18 13l-54 84c-4 6 -3 10 1 9zM46 465v23h-15z" />
    <glyph glyph-name="Gbreve" unicode="&#x11e;" horiz-adv-x="359" 
d="M175 918c43 23 87 47 130 70h-260c43 -23 87 -47 130 -70zM191 82c-43 -23 -87 -47 -130 -70h261c-43 23 -88 47 -131 70zM309 512c4 0 20 -13 20 -21v-334c0 -1 0 -2 -1 -2l-122 -66l146 -79c3 -2 8 -5 11 -9c5 -7 7 -13 3 -13h-348c-4 0 -19 15 -19 21c0 1 0 2 1 2
l161 87l-108 58c-5 3 -16 13 -16 20v667c0 1 0 2 1 2l123 66l-147 79c-3 2 -7 5 -10 9c-5 7 -7 13 -3 13h347c4 0 20 -15 20 -21c0 -1 0 -2 -1 -2l-161 -87l107 -58c5 -3 12 -10 15 -16s0 -8 -5 -5c-44 24 -88 47 -132 71c-44 -24 -88 -47 -132 -71v-655
c39 -21 77 -41 116 -62c44 24 88 47 132 71v311h-115c-3 0 -10 6 -15 12s-6 12 -3 12h135zM191 1292l-57 -30h115c-19 10 -39 20 -58 30zM175 1316c17 9 34 19 51 28v82c0 4 5 2 11 -3s11 -12 11 -16v-83c0 -1 0 -2 -1 -2l-41 -22l73 -40c5 -3 13 -10 15 -16
c2 -4 1 -6 -1 -6h-202c-4 0 -11 6 -16 13c-4 5 -4 9 -2 10l88 48l-26 14c-7 4 -16 15 -16 20v83c0 4 5 2 11 -3s10 -12 10 -16v-72c12 -6 23 -13 35 -19z" />
    <glyph glyph-name="n" unicode="n" horiz-adv-x="359" 
d="M175 418c43 23 87 47 130 70h-246v-7c39 -21 77 -42 116 -63zM206 402l107 -58c5 -3 16 -13 16 -20v-333c0 -4 -5 -3 -11 2s-11 12 -11 16v323c-39 21 -77 41 -116 62c-44 -24 -88 -47 -132 -71v-333c0 -4 -5 -2 -11 3s-11 13 -11 17v467l-23 13c-3 2 -7 5 -10 9
c-5 7 -7 13 -3 13h347c4 0 20 -15 20 -21c0 -1 0 -2 -1 -2zM59 356l102 55l-102 54v-109z" />
    <glyph glyph-name="scedilla" unicode="&#x15f;" 
d="M183 82c-43 -23 -87 -47 -130 -70h261c-43 23 -88 47 -131 70zM167 418c43 23 87 47 130 70h-260c43 -23 87 -47 130 -70zM153 98l-108 58c-5 3 -11 10 -14 16s-1 8 4 5c44 -24 88 -47 132 -71l123 66l-246 152c-4 3 -19 18 -14 21l123 66l-147 79c-5 3 -13 10 -15 16
c-2 4 0 6 2 6h347c4 0 11 -6 16 -13c4 -5 5 -9 3 -10l-161 -87l107 -58c5 -3 12 -10 15 -16s0 -8 -5 -5c-44 24 -88 47 -132 71c-41 -22 -81 -44 -122 -66l245 -152c3 -2 20 -18 14 -21l-122 -66l146 -79c3 -2 8 -5 11 -9c5 -7 7 -13 3 -13h-161l78 -64c5 -4 17 -19 10 -19
h-175l114 -61c5 -3 15 -13 15 -20v-83c0 -1 1 -2 0 -2l-41 -22l73 -40c3 -2 8 -5 11 -9c5 -7 7 -13 3 -13h-202c-4 0 -19 15 -19 21c0 1 0 2 1 2l88 48l-26 14c-5 3 -12 9 -15 15s0 8 5 5c17 -9 33 -18 50 -27c17 9 34 19 51 28v71l-139 74c-2 1 -22 22 -13 22h188l-73 60
h-171c-4 0 -20 15 -20 21c0 1 0 2 1 2zM183 -291c-19 -10 -38 -21 -57 -31h115c-19 10 -39 21 -58 31z" />
    <glyph glyph-name="Q" unicode="Q" horiz-adv-x="367" 
d="M191 894c-44 -24 -88 -47 -132 -71v-655c39 -21 77 -41 116 -62c44 24 88 47 132 71v655c-39 21 -77 41 -116 62zM191 82c-2 -1 -3 -2 -5 -3l125 -67h11c-43 23 -88 47 -131 70zM175 918c43 23 87 47 130 70h-260c43 -23 87 -47 130 -70zM161 98l-108 58
c-5 3 -16 13 -16 20v667c0 1 0 2 1 2l123 66l-147 79c-3 2 -7 5 -10 9c-5 7 -7 13 -3 13h347c4 0 20 -15 20 -21c0 -1 0 -2 -1 -2l-161 -87l107 -58c5 -3 16 -13 16 -20v-667c0 -1 0 -2 -1 -2l-122 -66l146 -79c3 -2 8 -5 11 -9c5 -7 7 -13 3 -13h-348c-4 0 -19 15 -19 21
c0 1 0 2 1 2l141 77l-127 68c-5 3 -11 10 -14 16s-1 8 4 5l151 -82zM172 71l-111 -59h222z" />
    <glyph glyph-name="percent" unicode="%" horiz-adv-x="335" 
d="M243 35c-14 -8 -29 -15 -43 -23h86c-14 8 -29 15 -43 23zM226 215c14 8 30 15 44 23h-87c14 -8 29 -15 43 -23zM226 59c22 12 43 23 65 35v71c-16 9 -32 17 -48 26c-22 -12 -43 -23 -65 -35v-71c16 -9 32 -17 48 -26zM257 42l60 -32c5 -3 12 -10 14 -16c2 -4 1 -6 -1 -6
h-174c-4 0 -10 6 -15 13c-4 5 -5 9 -3 10l74 40l-40 22c-7 4 -16 15 -16 20v83c0 1 0 2 1 2l55 30l-59 32c-5 3 -13 10 -15 16c-2 4 -1 6 1 6h174c4 0 11 -6 16 -13c4 -5 4 -9 2 -10l-74 -40l40 -22c7 -4 16 -15 16 -20v-83c0 -1 0 -2 -1 -2zM304 1005c6 -6 10 -12 9 -15
l-270 -1000c-1 -3 -6 -1 -12 5s-10 12 -9 15l269 1000c1 3 7 1 13 -5zM108 785c-14 -8 -29 -15 -43 -23h86c-14 8 -29 15 -43 23zM91 965c14 8 30 15 44 23h-87c14 -8 29 -15 43 -23zM91 809c22 12 43 23 65 35v71c-16 9 -32 17 -48 26c-22 -12 -43 -23 -65 -35v-71
c16 -9 32 -17 48 -26zM122 792l60 -32c5 -3 12 -10 14 -16c2 -4 1 -6 -1 -6h-174c-4 0 -10 6 -15 13c-4 5 -5 9 -3 10l74 40l-40 22c-7 4 -16 15 -16 20v83c0 1 0 2 1 2l55 30l-59 32c-5 3 -13 10 -15 16c-2 4 -1 6 1 6h174c4 0 11 -6 16 -13c4 -5 4 -9 2 -10l-74 -40
l40 -22c7 -4 16 -15 16 -20v-83c0 -1 0 -2 -1 -2z" />
    <glyph glyph-name="Igrave" unicode="&#xcc;" horiz-adv-x="113" 
d="M56 -7c-6 5 -11 13 -11 17v1000c0 4 5 2 11 -3s11 -13 11 -17v-1000c0 -4 -5 -2 -11 3zM108 1258c6 -4 20 -27 3 -16l-107 83c-4 3 -12 14 -12 18c0 1 0 2 1 2s4 -1 8 -4z" />
    <glyph glyph-name="W" unicode="W" horiz-adv-x="427" 
d="M23 1007c6 -5 12 -12 12 -16l86 -912l81 431c1 3 6 1 12 -5c5 -4 8 -10 9 -13l79 -419l88 937c0 3 5 1 11 -4s10 -13 10 -16l-94 -1000c0 -3 -3 -2 -8 1c-6 4 -12 12 -13 17l-82 435l-85 -453c0 -3 -4 -2 -9 2c-6 5 -12 13 -12 17l-95 1000c0 4 4 3 10 -2z" />
    <glyph glyph-name="quotedbl" unicode="&#x22;" horiz-adv-x="148" 
d="M40 1007c6 -5 11 -13 11 -17v-166c0 -4 -5 -3 -11 2s-11 13 -11 17v167c0 4 5 2 11 -3zM107 1007c6 -5 11 -13 11 -17v-166c0 -4 -5 -3 -11 2s-11 13 -11 17v167c0 4 5 2 11 -3z" />
    <glyph glyph-name="h" unicode="h" horiz-adv-x="367" 
d="M183 418c43 23 87 47 130 70h-246v-7c39 -21 77 -42 116 -63zM214 402l107 -58c5 -3 16 -13 16 -20v-333c0 -4 -5 -3 -11 2s-11 12 -11 16v323c-39 21 -77 41 -116 62c-44 -24 -88 -47 -132 -71v-333c0 -4 -5 -2 -11 3s-11 13 -11 17v467l-23 13c-3 2 -7 5 -10 9
c-5 7 -7 13 -3 13h36v498c0 4 5 2 11 -3s11 -13 11 -17v-478h289c4 0 20 -15 20 -21c0 -1 0 -2 -1 -2zM67 356l102 55l-102 54v-109z" />
    <glyph glyph-name="quotedblbase" unicode="&#x201e;" horiz-adv-x="173" 
d="M64 60c0 1 1 1 2 1c5 0 21 -18 20 -21l-43 -167c-1 -3 -6 -1 -12 5s-10 12 -9 15zM141 55c6 -6 10 -12 9 -15l-43 -167c-1 -3 -6 -1 -12 5s-10 12 -9 15l43 167c1 3 6 1 12 -5z" />
    <glyph glyph-name="w" unicode="w" horiz-adv-x="373" 
d="M23 508c6 -5 11 -12 12 -16l69 -426l72 444c3 8 21 -15 21 -18l69 -426l72 444c1 3 5 1 11 -4s11 -13 10 -16l-81 -500c0 -2 -4 -1 -9 2c-6 4 -11 12 -12 16l-69 426l-72 -444c0 -2 -4 -1 -9 2c-6 4 -12 12 -13 16l-81 500c-1 4 4 5 10 0z" />
    <glyph glyph-name="Nacute" unicode="&#x143;" horiz-adv-x="383" 
d="M56 -7c-6 5 -10 12 -10 16v1000c0 4 5 3 11 -3c5 -5 9 -11 10 -14l248 -921v938c0 4 5 3 11 -2s11 -12 11 -16v-1000c0 -3 -4 -3 -8 0c-6 4 -12 12 -13 17l-249 921v-938c0 -4 -5 -3 -11 2zM235 1344h2c6 0 19 -14 19 -20c0 -1 0 -2 -1 -2l-107 -83h-2
c-6 0 -19 14 -19 20c0 1 0 2 1 2z" />
    <glyph glyph-name="lslash" unicode="&#x142;" horiz-adv-x="151" 
d="M75 -7c-6 5 -11 13 -11 17v536l-46 -57c0 -1 -1 -1 -2 -1c-6 0 -19 15 -19 21c0 1 1 2 1 2l66 82v417c0 4 5 2 11 -3s11 -13 11 -17v-369l45 57c0 1 1 1 2 1c6 0 20 -15 20 -21c0 -1 -1 -2 -1 -2l-66 -83v-583c0 -4 -5 -2 -11 3z" />
    <glyph glyph-name="caron" unicode="&#x2c7;" horiz-adv-x="238" 
d="M57 1011c4 -1 11 -7 15 -13l40 -63l49 76c0 1 1 1 2 1c6 0 22 -19 19 -23l-54 -83c-3 -5 -15 8 -18 13l-54 83c-4 6 -3 10 1 9z" />
    <glyph glyph-name="oslash" unicode="&#xf8;" 
d="M167 106c44 24 88 47 132 71v155l-71 38l-82 -253c7 -4 14 -7 21 -11zM183 82c-20 -11 -39 -21 -59 -32l-12 -38h202c-43 23 -88 47 -131 70zM167 418c20 11 39 21 59 32l13 38h-202c43 -23 87 -47 130 -70zM198 89l146 -79c5 -3 13 -10 15 -16c2 -4 1 -6 -1 -6h-254
l-53 -165c-1 -3 -7 -1 -13 5s-9 13 -8 16l47 144h-67c-4 0 -11 6 -16 13c-4 5 -5 9 -3 10l112 61l15 45l-73 39c-7 4 -16 15 -16 20v167c0 1 0 2 1 2l123 66l-147 79c-5 3 -13 10 -15 16c-2 4 0 6 2 6h253l54 165c1 3 6 1 12 -5s10 -13 9 -16l-47 -144h66c4 0 11 -6 16 -13
c4 -5 5 -9 3 -10l-112 -61l-15 -45l73 -39c7 -4 16 -15 16 -20v-167c0 -1 0 -2 -1 -2zM137 90l16 8l-11 6zM260 468l37 20h-31zM213 410l-15 -8l10 -6zM90 32l-37 -20h31zM204 383c-7 4 -14 7 -21 11c-44 -24 -88 -47 -132 -71v-155l71 -38z" />
    <glyph glyph-name="o" unicode="o" 
d="M167 106c44 24 88 47 132 71v155c-39 21 -77 41 -116 62c-44 -24 -88 -47 -132 -71v-155c39 -21 77 -41 116 -62zM183 82c-43 -23 -87 -47 -130 -70h261c-43 23 -88 47 -131 70zM167 418c43 23 87 47 130 70h-260c43 -23 87 -47 130 -70zM198 89l146 -79
c5 -3 13 -10 15 -16c2 -4 1 -6 -1 -6h-348c-4 0 -11 6 -16 13c-4 5 -5 9 -3 10l162 87l-108 58c-7 4 -16 15 -16 20v167c0 1 0 2 1 2l123 66l-147 79c-5 3 -13 10 -15 16c-2 4 0 6 2 6h347c4 0 11 -6 16 -13c4 -5 5 -9 3 -10l-161 -87l107 -58c7 -4 16 -15 16 -20v-167
c0 -1 0 -2 -1 -2z" />
    <glyph glyph-name="less" unicode="&#x3c;" horiz-adv-x="281" 
d="M250 242c1 -4 -2 -4 -8 0l-216 167c-5 4 -16 16 -12 19l216 166h2c6 0 19 -14 19 -20c0 -1 0 -2 -1 -2l-209 -161l197 -153c6 -4 11 -12 12 -16z" />
    <glyph glyph-name="dollar" unicode="$" horiz-adv-x="335" 
d="M190 902l107 -58c5 -3 12 -10 15 -16s0 -8 -5 -5c-43 23 -86 47 -129 70v-399l130 -160c3 -3 5 -8 5 -10v-167c0 -1 0 -2 -1 -2l-122 -66l146 -79c5 -3 13 -10 15 -16c2 -4 1 -6 -1 -6h-172v-164c0 -4 -5 -3 -11 2s-11 13 -11 17v145h-154c-4 0 -11 6 -16 13
c-4 5 -5 9 -3 10l162 87l-108 58c-5 3 -11 10 -14 16s-1 8 4 5c43 -23 86 -47 129 -70v399l-129 160c-3 4 -6 8 -6 10v167c0 1 0 2 1 2l123 66l-147 79c-3 2 -7 5 -10 9c-5 7 -7 13 -3 13h171v164c0 4 5 3 11 -2s11 -13 11 -17v-145h154c4 0 20 -15 20 -21c0 -1 0 -2 -1 -2z
M178 116l113 61v162l-113 140v-363zM178 12h128c-42 23 -86 45 -128 68v-68zM178 929l111 59h-111v-59zM156 884l-113 -61v-162l113 -140v363zM156 71l-111 -59h111v59zM156 988h-127c42 -23 85 -45 127 -68v68z" />
    <glyph glyph-name="Ccedilla" unicode="&#xc7;" 
d="M175 918c43 23 87 47 130 70h-260c43 -23 87 -47 130 -70zM191 82c-43 -23 -87 -47 -130 -70h261c-43 23 -88 47 -131 70zM206 902l107 -58c5 -3 12 -10 15 -16s0 -8 -5 -5c-44 24 -88 47 -132 71c-44 -24 -88 -47 -132 -71v-655c39 -21 77 -41 116 -62
c44 24 89 48 133 72h1c6 0 20 -15 20 -21c0 -1 0 -2 -1 -2l-122 -66l146 -79c3 -2 8 -5 11 -9c5 -7 7 -13 3 -13h-161l78 -64c5 -4 17 -19 10 -19h-175l114 -61c5 -3 16 -13 16 -20v-83c0 -1 0 -2 -1 -2l-41 -22l73 -40c3 -2 8 -5 11 -9c5 -7 7 -13 3 -13h-202
c-4 0 -19 15 -19 21c0 1 0 2 1 2l88 48l-26 14c-5 3 -12 9 -15 15s0 8 5 5c17 -9 33 -18 50 -27c17 9 34 19 51 28v71l-139 74c-2 1 -22 22 -13 22h188l-73 60h-171c-4 0 -19 15 -19 21c0 1 0 2 1 2l161 87l-108 58c-5 3 -16 13 -16 20v667c0 1 0 2 1 2l123 66l-147 79
c-3 2 -7 5 -10 9c-5 7 -7 13 -3 13h347c4 0 20 -15 20 -21c0 -1 0 -2 -1 -2zM191 -291c-19 -10 -38 -21 -57 -31h115c-19 10 -39 21 -58 31z" />
    <glyph glyph-name="zacute" unicode="&#x17a;" horiz-adv-x="335" 
d="M26 500c-5 6 -6 12 -3 12h270c3 0 21 -13 21 -21c0 -1 -1 -1 -1 -2l-259 -477h239c3 0 10 -6 15 -12s6 -12 3 -12h-270c-7 0 -21 19 -19 23l258 477h-239c-3 0 -10 6 -15 12zM211 844h2c6 0 19 -14 19 -20c0 -1 0 -2 -1 -2l-107 -83h-2c-6 0 -19 14 -19 20c0 1 0 2 1 2z
" />
    <glyph glyph-name="thorn" unicode="&#xfe;" horiz-adv-x="359" 
d="M48 1007c6 -5 11 -13 11 -17v-509l254 -137c5 -3 16 -13 16 -20v-167c0 -1 0 -2 -1 -2l-269 -145v-520c0 -4 -5 -2 -11 3s-11 13 -11 17v478h-19c-4 0 -19 15 -19 21c0 1 0 2 1 2l37 21v445l-23 13c-3 2 -7 5 -10 9c-5 7 -7 13 -3 13h36v498c0 4 5 2 11 -3zM59 43
l248 134v155l-248 133v-422z" />
    <glyph glyph-name="P" unicode="P" 
d="M67 966v-423l248 134v155zM48 1012c8 0 19 -17 19 -21v-10l254 -137c5 -3 16 -13 16 -20v-167c0 -1 0 -2 -1 -2c-90 -48 -179 -97 -269 -145v-519c0 -4 -5 -3 -11 2s-10 12 -10 16v479h-20c-4 0 -19 15 -19 21c0 1 0 2 1 2l38 21v445l-24 13c-3 2 -7 5 -10 9
c-5 7 -7 13 -3 13h39z" />
    <glyph glyph-name="F" unicode="F" horiz-adv-x="359" 
d="M56 -7c-6 5 -10 12 -10 16v1000c0 1 1 3 2 3h270c3 0 9 -6 14 -12s6 -12 3 -12h-268v-476h251c3 0 9 -6 14 -12s6 -12 3 -12h-268v-497c0 -4 -5 -3 -11 2z" />
    <glyph glyph-name="Agrave" unicode="&#xc0;" horiz-adv-x="302" 
d="M15 -6c-6 5 -10 13 -10 16l135 1000c0 3 7 1 13 -5c5 -5 9 -11 9 -14l135 -1000c1 -4 -4 -4 -10 1s-11 13 -12 17l-64 479h-117l-67 -498c0 -3 -6 -1 -12 4zM203 1258c6 -4 20 -27 3 -16l-107 83c-6 4 -11 13 -12 17s3 3 9 -1zM208 512l-56 408l-55 -408h111z" />
    <glyph glyph-name="v" unicode="v" horiz-adv-x="302" 
d="M14 509c6 -4 12 -12 13 -17l122 -452l126 470c1 3 7 1 13 -5s10 -12 9 -15l-135 -500c-1 -2 -4 -2 -8 1c-6 4 -12 12 -13 17l-135 500c-1 5 2 5 8 1z" />
    <glyph glyph-name="R" unicode="R" horiz-adv-x="359" 
d="M67 966v-423l248 134v155zM48 1012c8 0 19 -17 19 -21v-10l254 -137c5 -3 16 -13 16 -20v-167c0 -1 0 -2 -1 -2c-90 -48 -179 -97 -269 -145v-80l267 -433c4 -6 3 -10 -1 -8s-11 8 -15 14l-251 406v-418c0 -4 -5 -3 -11 2s-10 12 -10 16v435l-37 59c-1 2 -3 7 -1 8l38 21
v445l-24 13c-3 2 -7 5 -10 9c-5 7 -7 13 -3 13h39zM46 465v23h-15z" />
    <glyph glyph-name="Ydieresis" unicode="&#x178;" horiz-adv-x="286" 
d="M143 -7c-6 5 -11 12 -11 16v500l-134 499c-1 5 2 5 8 1s11 -12 12 -17l123 -452l126 470c0 1 1 1 2 1c5 0 21 -18 20 -21l-135 -500v-499c0 -4 -5 -3 -11 2zM76 1276c-6 5 -11 13 -11 17v50c0 4 5 2 11 -3s11 -12 11 -16v-50c0 -4 -5 -3 -11 2zM210 1276
c-6 5 -11 13 -11 17v50c0 4 5 2 11 -3s11 -12 11 -16v-50c0 -4 -5 -3 -11 2z" />
    <glyph glyph-name="one" unicode="1" horiz-adv-x="289" 
d="M34 656c0 -1 -1 -1 -2 -1c-6 0 -21 18 -18 22l215 334c0 1 1 1 2 1c6 0 20 -17 20 -21v-1000c0 -4 -5 -3 -11 2s-11 12 -11 16v948z" />
    <glyph glyph-name="G" unicode="G" horiz-adv-x="359" 
d="M175 918c43 23 87 47 130 70h-260c43 -23 87 -47 130 -70zM191 82c-43 -23 -87 -47 -130 -70h261c-43 23 -88 47 -131 70zM309 512c4 0 20 -13 20 -21v-334c0 -1 0 -2 -1 -2l-122 -66l146 -79c3 -2 8 -5 11 -9c5 -7 7 -13 3 -13h-348c-4 0 -19 15 -19 21c0 1 0 2 1 2
l161 87l-108 58c-5 3 -16 13 -16 20v667c0 1 0 2 1 2l123 66l-147 79c-3 2 -7 5 -10 9c-5 7 -7 13 -3 13h347c4 0 20 -15 20 -21c0 -1 0 -2 -1 -2l-161 -87l107 -58c5 -3 12 -10 15 -16s0 -8 -5 -5c-44 24 -88 47 -132 71c-44 -24 -88 -47 -132 -71v-655
c39 -21 77 -41 116 -62c44 24 88 47 132 71v311h-115c-3 0 -10 6 -15 12s-6 12 -3 12h135z" />
    <glyph glyph-name="eogonek" unicode="&#x119;" 
d="M183 82c-43 -23 -87 -47 -130 -70h261c-43 23 -88 47 -131 70zM167 418c43 23 87 47 130 70h-260c43 -23 87 -47 130 -70zM183 394c-30 -16 -61 -33 -91 -49h183c-30 16 -62 33 -92 49zM177 -291c-19 -10 -38 -21 -57 -31h114c-19 10 -38 21 -57 31zM160 -267
c17 9 35 19 52 28h1c6 0 20 -14 20 -20c0 -1 0 -2 -1 -2l-41 -22l73 -40c5 -3 13 -10 15 -16c2 -4 1 -6 -1 -6h-202c-4 0 -10 6 -15 13c-4 5 -5 9 -3 10l88 48l-26 14c-7 4 -16 14 -16 19v85l93 144h-187c-4 0 -11 6 -16 13c-4 5 -5 9 -3 10l162 87l-108 58
c-7 4 -16 15 -16 20v167c0 1 0 2 1 2l123 66l-147 79c-5 3 -13 10 -15 16c-2 4 0 6 2 6h347c4 0 11 -6 16 -13c4 -5 5 -9 3 -10l-161 -87l107 -58c5 -3 17 -12 16 -20c0 -1 -1 -2 -2 -2h-268v-154c39 -21 77 -41 116 -62c44 24 89 48 133 72h1c6 0 20 -15 20 -21
c0 -1 0 -2 -1 -2l-122 -66l146 -79c5 -3 13 -10 15 -16c2 -4 1 -6 -1 -6h-126l-106 -165v-71c12 -6 22 -13 34 -19z" />
    <glyph glyph-name="lacute" unicode="&#x13a;" horiz-adv-x="112" 
d="M56 -7c-6 5 -11 13 -11 17v1000c0 4 5 2 11 -3s11 -13 11 -17v-1000c0 -4 -5 -2 -11 3zM99 1178h2c6 0 19 -14 19 -20c0 -1 0 -2 -1 -2l-107 -84h-2c-6 0 -19 14 -19 20c0 1 0 2 1 2z" />
    <glyph glyph-name="seven" unicode="7" horiz-adv-x="327" 
d="M26 1000c-5 6 -6 12 -3 12h270c4 0 22 -14 20 -22l-270 -1000c-1 -3 -6 -1 -12 5s-10 12 -9 15l264 978h-245c-3 0 -10 6 -15 12z" />
    <glyph glyph-name="Ecircumflex" unicode="&#xca;" horiz-adv-x="359" 
d="M65 -12c-4 0 -19 13 -19 21v1000c0 1 1 3 2 3h270c3 0 9 -6 14 -12s6 -12 3 -12h-268v-476h251c3 0 9 -6 14 -12s6 -12 3 -12h-268v-476h251c3 0 9 -6 14 -12s6 -12 3 -12h-270zM148 1239c0 -1 -1 -1 -2 -1c-6 0 -22 19 -19 23l54 83c3 4 15 -8 18 -13l54 -83
c4 -6 3 -10 -1 -9s-11 7 -15 13l-40 63z" />
    <glyph glyph-name="m" unicode="m" horiz-adv-x="413" 
d="M48 -7c-6 5 -11 13 -11 17v500c0 4 5 2 11 -3s11 -13 11 -17v-102l60 123c3 6 18 -12 20 -16l67 -138l75 154c3 6 18 -12 20 -16l81 -167c1 -2 1 -3 1 -4v-333c0 -4 -5 -3 -11 2s-10 12 -10 16v332l-66 136l-75 -154v-332c0 -4 -5 -3 -11 2s-10 12 -10 16v332l-66 136
l-75 -153v-334c0 -4 -5 -2 -11 3z" />
    <glyph glyph-name="ring" unicode="&#x2da;" horiz-adv-x="238" 
d="M126 876c-19 -10 -38 -21 -57 -31h114c-19 10 -38 21 -57 31zM110 1041c19 10 38 21 57 31h-115c19 -10 39 -21 58 -31zM110 900l51 27v71c-12 6 -23 13 -35 19c-17 -9 -34 -19 -51 -28v-71c12 -6 23 -12 35 -18zM140 883l74 -39c5 -3 13 -11 15 -17c2 -4 0 -5 -2 -5
h-201c-4 0 -11 5 -16 12c-4 5 -5 10 -3 11l89 47l-27 14c-7 4 -15 15 -15 20v83c0 1 0 2 1 2l41 22l-74 40c-5 3 -13 10 -15 16c-2 4 -1 6 1 6h202c4 0 11 -6 16 -13c4 -5 5 -9 3 -10l-89 -48l27 -14c7 -4 15 -14 15 -19v-84c0 -1 0 -2 -1 -2z" />
    <glyph glyph-name="Ntilde" unicode="&#xd1;" horiz-adv-x="383" 
d="M56 -7c-6 5 -10 12 -10 16v1000c0 4 5 3 11 -3c5 -5 9 -11 10 -14l248 -921v938c0 4 5 3 11 -2s11 -12 11 -16v-1000c0 -3 -4 -3 -8 0c-6 4 -12 12 -13 17l-249 921v-938c0 -4 -5 -3 -11 2zM121 1239c0 -1 -1 -1 -2 -1c-6 0 -22 19 -19 23l54 83c3 4 15 -8 18 -13l41 -63
l48 76c0 1 1 1 2 1c6 0 22 -18 19 -22l-54 -84c-3 -5 -15 8 -18 13l-40 63z" />
    <glyph glyph-name="bracketright" unicode="]" horiz-adv-x="154" 
d="M89 1012c4 0 19 -13 19 -21v-1167c0 -1 -1 -2 -2 -2h-81c-3 0 -10 5 -15 11s-6 12 -3 12h80v1143h-62c-3 0 -10 6 -15 12s-6 12 -3 12h82z" />
    <glyph glyph-name="asciitilde" unicode="~" horiz-adv-x="238" 
d="M21 906c0 -1 -1 -1 -2 -1c-6 0 -20 15 -20 21c0 1 1 2 1 2l67 83c2 2 8 -1 13 -7l71 -73l64 80c0 1 1 1 2 1c6 0 19 -15 19 -21c0 -1 -1 -2 -1 -2l-67 -83c-2 -2 -7 1 -13 7l-70 72z" />
    <glyph glyph-name="Idotaccent" unicode="&#x130;" horiz-adv-x="113" 
d="M56 -7c-6 5 -11 13 -11 17v1000c0 4 5 2 11 -3s11 -13 11 -17v-1000c0 -4 -5 -2 -11 3zM56 1276c-6 5 -11 13 -11 17v50c0 4 5 2 11 -3s11 -12 11 -16v-50c0 -4 -5 -3 -11 2z" />
    <glyph glyph-name="guillemotleft" unicode="&#xab;" horiz-adv-x="165" 
d="M69 75c-6 4 -11 11 -12 16l-43 167c0 1 -1 1 -1 2l43 167c0 1 1 1 2 1c5 0 21 -18 20 -21l-43 -166l43 -165c1 -5 -3 -5 -9 -1zM134 75c-6 4 -12 11 -13 16l-43 167v2l43 167c1 3 6 1 12 -5s10 -12 9 -15l-43 -166l43 -165c1 -5 -2 -5 -8 -1z" />
    <glyph glyph-name="H" unicode="H" horiz-adv-x="383" 
d="M56 -7c-6 5 -11 13 -11 17v1000c0 4 5 2 11 -3s11 -13 11 -17v-478h248v498c0 4 5 2 11 -3s11 -13 11 -17v-1000c0 -4 -5 -2 -11 3s-11 13 -11 17v478h-248v-498c0 -4 -5 -2 -11 3z" />
    <glyph glyph-name="Ugrave" unicode="&#xd9;" horiz-adv-x="367" 
d="M191 82c-43 -23 -87 -47 -130 -70h261c-43 23 -88 47 -131 70zM48 1007c6 -5 11 -12 11 -16v-823c39 -21 77 -41 116 -62c44 24 88 47 132 71v832c0 4 5 3 11 -2s11 -12 11 -16v-834c0 -1 0 -2 -1 -2l-122 -66l146 -79c5 -3 13 -10 15 -16c2 -4 1 -6 -1 -6h-348
c-4 0 -11 6 -16 13c-4 5 -4 9 -2 10l161 87l-108 58c-7 4 -16 15 -16 20v833c0 4 5 3 11 -2zM235 1258c6 -4 20 -27 3 -16l-107 83c-6 4 -11 13 -12 17s3 3 9 -1z" />
    <glyph glyph-name="Z" unicode="Z" horiz-adv-x="319" 
d="M18 1000c-5 6 -6 12 -3 12h270c4 0 22 -14 20 -22l-264 -978h244c3 0 10 -6 15 -12s6 -12 3 -12h-270c-8 0 -21 18 -20 22l265 978h-245c-3 0 -10 6 -15 12z" />
    <glyph glyph-name="Yacute" unicode="&#xdd;" horiz-adv-x="286" 
d="M143 -7c-6 5 -11 12 -11 16v500l-134 499c-1 5 2 5 8 1s11 -12 12 -17l123 -452l126 470c0 1 1 1 2 1c5 0 21 -18 20 -21l-135 -500v-499c0 -4 -5 -3 -11 2zM187 1344h2c6 0 19 -14 19 -20c0 -1 0 -2 -1 -2l-108 -83h-2c-6 0 -19 14 -19 20c0 1 0 2 1 2z" />
    <glyph glyph-name="uhungarumlaut" unicode="&#x171;" 
d="M183 82c-43 -23 -87 -47 -130 -70h261c-43 23 -88 47 -131 70zM40 507c6 -5 11 -12 11 -16v-323c39 -21 77 -41 116 -62c44 24 88 47 132 71v332c0 4 5 3 11 -2s11 -12 11 -16v-334c0 -1 0 -2 -1 -2l-122 -66l146 -79c5 -3 13 -10 15 -16c2 -4 1 -6 -1 -6h-348
c-4 0 -11 6 -16 13c-4 5 -5 9 -3 10l162 87l-108 58c-7 4 -16 15 -16 20v333c0 4 5 3 11 -2zM152 844h2c6 0 19 -14 19 -20c0 -1 0 -2 -1 -2l-94 -83h-2c-6 0 -19 14 -19 20c0 1 0 2 1 2zM199 739h-2c-6 0 -20 14 -20 20c0 1 0 2 1 2l94 83h2c6 0 19 -14 19 -20
c0 -1 0 -2 -1 -2z" />
    <glyph glyph-name="uni1E9E" unicode="&#x1e9e;" horiz-adv-x="540" 
d="M113 911l135 72l-10 5h-268c48 -26 95 -51 143 -77zM130 89c-48 -26 -96 -51 -144 -77h236l26 13c-39 21 -79 43 -118 64zM144 894l94 -50c5 -3 11 -10 14 -16s1 -8 -4 -5c-39 21 -79 43 -118 64c-40 -21 -79 -43 -119 -64v-162l239 -328c2 -3 4 -7 4 -9v-167
c0 -1 0 -2 -1 -2l-109 -58l118 -64l134 73l-94 50c-5 3 -11 10 -14 16s-1 8 4 5c39 -21 79 -43 118 -64c40 21 79 43 119 64v162l-239 328c-3 3 -4 7 -4 9v167c0 1 0 2 1 2l109 58l-118 64zM410 911c48 26 96 51 144 77h-236l-26 -13c39 -21 79 -43 118 -64zM427 89
l-135 -72l10 -5h268c-48 26 -95 51 -143 77zM441 894l94 -50c5 -3 11 -10 14 -16s1 -8 -4 -5c-39 21 -79 43 -118 64c-40 -21 -79 -43 -119 -64v-162l239 -328c2 -3 4 -7 4 -9v-167c0 -1 0 -2 -1 -2l-109 -58l160 -87c5 -3 13 -10 15 -16c2 -4 1 -6 -1 -6h-672
c-4 0 -11 6 -16 13c-4 5 -5 9 -3 10l175 95l-94 50c-5 3 -11 10 -14 16s-1 8 4 5c39 -21 79 -43 118 -64c40 21 79 43 119 64v162l-239 328c-3 3 -4 7 -4 9v167c0 1 0 2 1 2l109 58l-160 87c-3 2 -7 5 -10 9c-5 7 -8 13 -4 13h672c4 0 20 -15 20 -21c0 -1 0 -2 -1 -2z" />
    <glyph glyph-name="B" unicode="B" horiz-adv-x="367" 
d="M67 966v-423l248 134v155zM48 1012c8 0 19 -17 19 -21v-10l254 -137c5 -3 16 -13 16 -20v-167c0 -1 0 -2 -1 -2c-90 -48 -179 -97 -269 -145v-29l254 -137c5 -3 16 -13 16 -20v-167c0 -1 0 -2 -1 -2c-90 -48 -179 -97 -269 -145v-19c0 -1 -1 -3 -2 -3h-39
c-4 0 -19 15 -19 21c0 1 0 2 1 2l38 21v445l-24 13c-2 1 -21 17 -14 21l38 21v445l-24 13c-3 2 -7 5 -10 9c-5 7 -7 13 -3 13h39zM67 466v-423l248 134v155z" />
    <glyph glyph-name="D" unicode="D" horiz-adv-x="375" 
d="M67 966v-923l248 134v655zM48 1012c8 0 19 -17 19 -21v-10l254 -137c5 -3 16 -13 16 -20v-667c0 -1 0 -2 -1 -2c-90 -48 -179 -97 -269 -145v-19c0 -1 -1 -3 -2 -3h-39c-4 0 -19 15 -19 21c0 1 0 2 1 2l38 21v945l-24 13c-3 2 -7 5 -10 9c-5 7 -7 13 -3 13h39z" />
    <glyph glyph-name="Otilde" unicode="&#xd5;" horiz-adv-x="367" 
d="M175 106c44 24 88 47 132 71v655c-39 21 -77 41 -116 62c-44 -24 -88 -47 -132 -71v-655c39 -21 77 -41 116 -62zM175 918c43 23 87 47 130 70h-260c43 -23 87 -47 130 -70zM191 82c-43 -23 -87 -47 -130 -70h261c-43 23 -88 47 -131 70zM206 902l107 -58
c5 -3 16 -13 16 -20v-667c0 -1 0 -2 -1 -2l-122 -66l146 -79c3 -2 8 -5 11 -9c5 -7 7 -13 3 -13h-348c-4 0 -19 15 -19 21c0 1 0 2 1 2l161 87l-108 58c-5 3 -16 13 -16 20v667c0 1 0 2 1 2l123 66l-147 79c-3 2 -7 5 -10 9c-5 7 -7 13 -3 13h347c4 0 20 -15 20 -21
c0 -1 0 -2 -1 -2zM113 1239c0 -1 -1 -1 -2 -1c-6 0 -22 19 -19 23l54 83c3 4 15 -8 18 -13l41 -63l48 76c0 1 1 1 2 1c6 0 22 -18 19 -22l-54 -84c-3 -5 -15 8 -18 13l-40 63z" />
    <glyph glyph-name="odieresis" unicode="&#xf6;" 
d="M167 106c44 24 88 47 132 71v155c-39 21 -77 41 -116 62c-44 -24 -88 -47 -132 -71v-155c39 -21 77 -41 116 -62zM183 82c-43 -23 -87 -47 -130 -70h261c-43 23 -88 47 -131 70zM167 418c43 23 87 47 130 70h-260c43 -23 87 -47 130 -70zM198 89l146 -79
c5 -3 13 -10 15 -16c2 -4 1 -6 -1 -6h-348c-4 0 -11 6 -16 13c-4 5 -5 9 -3 10l162 87l-108 58c-7 4 -16 15 -16 20v167c0 1 0 2 1 2l123 66l-147 79c-5 3 -13 10 -15 16c-2 4 0 6 2 6h347c4 0 11 -6 16 -13c4 -5 5 -9 3 -10l-161 -87l107 -58c7 -4 16 -15 16 -20v-167
c0 -1 0 -2 -1 -2zM108 776c-6 5 -11 13 -11 17v50c0 4 5 2 11 -3s11 -12 11 -16v-50c0 -4 -5 -3 -11 2zM242 776c-6 5 -11 13 -11 17v50c0 4 5 2 11 -3s11 -12 11 -16v-50c0 -4 -5 -3 -11 2z" />
    <glyph glyph-name="parenright" unicode=")" horiz-adv-x="157" 
d="M-211 1005c-3 6 -1 8 4 5l309 -166c5 -3 16 -13 16 -20v-833c0 -1 0 -2 -1 -2l-309 -167h-1c-5 0 -19 15 -19 21c0 1 0 2 1 2l308 166v821l-294 158c-5 3 -11 9 -14 15z" />
    <glyph glyph-name="greater" unicode="&#x3e;" horiz-adv-x="281" 
d="M50 239h-2c-6 0 -19 14 -19 20c0 1 0 2 1 2l209 162l-197 152c-6 4 -11 13 -12 17s3 3 9 -1l215 -166c5 -4 16 -16 12 -19z" />
    <glyph glyph-name="breve" unicode="&#x2d8;" horiz-adv-x="238" 
d="M126 959c-19 -10 -38 -21 -57 -31h114c-19 10 -38 21 -57 31zM110 983c17 9 34 19 51 28v82c0 4 5 2 11 -3s10 -12 10 -16v-83c0 -1 0 -2 -1 -2l-41 -22l74 -40c5 -3 13 -10 15 -16c2 -4 0 -6 -2 -6h-201c-4 0 -11 6 -16 13c-4 5 -5 9 -3 10l89 48l-27 14
c-7 4 -15 14 -15 19v84c0 4 4 2 10 -3s11 -12 11 -16v-72c12 -6 23 -13 35 -19z" />
    <glyph glyph-name="otilde" unicode="&#xf5;" 
d="M167 106c44 24 88 47 132 71v155c-39 21 -77 41 -116 62c-44 -24 -88 -47 -132 -71v-155c39 -21 77 -41 116 -62zM183 82c-43 -23 -87 -47 -130 -70h261c-43 23 -88 47 -131 70zM167 418c43 23 87 47 130 70h-260c43 -23 87 -47 130 -70zM198 89l146 -79
c5 -3 13 -10 15 -16c2 -4 1 -6 -1 -6h-348c-4 0 -11 6 -16 13c-4 5 -5 9 -3 10l162 87l-108 58c-7 4 -16 15 -16 20v167c0 1 0 2 1 2l123 66l-147 79c-5 3 -13 10 -15 16c-2 4 0 6 2 6h347c4 0 11 -6 16 -13c4 -5 5 -9 3 -10l-161 -87l107 -58c7 -4 16 -15 16 -20v-167
c0 -1 0 -2 -1 -2zM105 739c0 -1 -1 -1 -2 -1c-6 0 -22 19 -19 23l54 83c3 4 15 -8 18 -13l41 -63l48 76c0 1 1 1 2 1c6 0 22 -18 19 -22l-54 -84c-3 -5 -15 8 -18 13l-40 63z" />
    <glyph glyph-name="Aogonek" unicode="&#x104;" horiz-adv-x="302" 
d="M15 -6c-6 5 -10 13 -10 16l135 1000c0 3 7 1 13 -5c5 -5 9 -11 9 -14l135 -1000c1 -4 -4 -4 -10 1s-11 13 -12 17l-64 479h-117l-67 -498c0 -3 -6 -1 -12 4zM221 -291c-19 -10 -38 -21 -57 -31h115c-19 10 -39 21 -58 31zM205 -267c17 9 35 19 52 28h1c6 0 20 -14 20 -20
c0 -1 0 -2 -1 -2l-41 -22l73 -40c5 -3 13 -10 15 -16c2 -4 1 -6 -1 -6h-202c-4 0 -11 6 -16 13c-4 5 -4 9 -2 10l88 48l-26 14c-7 4 -16 14 -16 19v85l107 167c0 1 1 1 2 1c6 0 22 -19 19 -23l-107 -166v-71c12 -6 23 -13 35 -19zM208 512l-56 408l-55 -408h111z" />
    <glyph glyph-name="Zdotaccent" unicode="&#x17b;" horiz-adv-x="319" 
d="M18 1000c-5 6 -6 12 -3 12h270c4 0 22 -14 20 -22l-264 -978h244c3 0 10 -6 15 -12s6 -12 3 -12h-270c-8 0 -21 18 -20 22l265 978h-245c-3 0 -10 6 -15 12zM159 1276c-6 5 -11 13 -11 17v50c0 4 5 2 11 -3s11 -12 11 -16v-50c0 -4 -5 -3 -11 2z" />
    <glyph glyph-name="Lcaron" unicode="&#x13d;" horiz-adv-x="343" 
d="M65 -12c-4 0 -19 13 -19 21v1000c0 4 4 3 10 -2s11 -12 11 -16v-979h251c3 0 9 -6 14 -12s6 -12 3 -12h-270zM214 1339c6 -6 10 -13 9 -16l-43 -166c-1 -3 -6 -2 -12 4s-10 13 -9 16l43 166c1 3 6 2 12 -4z" />
    <glyph glyph-name="three" unicode="3" horiz-adv-x="335" 
d="M167 82c-43 -23 -87 -47 -130 -70h261c-43 23 -88 47 -131 70zM151 918c43 23 87 47 130 70h-260c43 -23 87 -47 130 -70zM137 98l-108 58c-5 3 -11 10 -14 16s-1 8 4 5c44 -24 88 -47 132 -71c44 24 88 47 132 71v155l-293 158c-4 2 -21 18 -15 21l308 166v155
c-39 21 -77 41 -116 62c-44 -24 -89 -48 -133 -72h-1c-6 0 -20 15 -20 21c0 1 0 2 1 2l123 66l-147 79c-3 2 -7 5 -10 9c-5 7 -8 13 -4 13h348c4 0 20 -15 20 -21c0 -1 0 -2 -1 -2l-162 -87l108 -58c5 -3 16 -13 16 -20v-167c0 -1 0 -2 -1 -2l-296 -159l281 -152
c5 -3 16 -13 16 -20v-167c0 -1 0 -2 -1 -2l-123 -66l147 -79c3 -2 8 -5 11 -9c5 -7 7 -13 3 -13h-348c-4 0 -20 15 -20 21c0 1 0 2 1 2z" />
    <glyph glyph-name="ydieresis" unicode="&#xff;" horiz-adv-x="302" 
d="M14 509c6 -4 12 -12 13 -17l122 -452l126 470c1 3 7 1 13 -5s10 -12 9 -15l-270 -1000c0 -1 -1 -1 -2 -1c-5 0 -21 18 -20 21l135 499l-134 499c-1 5 2 5 8 1zM84 776c-6 5 -11 13 -11 17v50c0 4 5 2 11 -3s11 -12 11 -16v-50c0 -4 -5 -3 -11 2zM218 776
c-6 5 -11 13 -11 17v50c0 4 5 2 11 -3s11 -12 11 -16v-50c0 -4 -5 -3 -11 2z" />
    <glyph glyph-name="uring" unicode="&#x16f;" 
d="M183 82c-43 -23 -87 -47 -130 -70h261c-43 23 -88 47 -131 70zM40 507c6 -5 11 -12 11 -16v-323c39 -21 77 -41 116 -62c44 24 88 47 132 71v332c0 4 5 3 11 -2s11 -12 11 -16v-334c0 -1 0 -2 -1 -2l-122 -66l146 -79c5 -3 13 -10 15 -16c2 -4 1 -6 -1 -6h-348
c-4 0 -11 6 -16 13c-4 5 -5 9 -3 10l162 87l-108 58c-7 4 -16 15 -16 20v333c0 4 5 3 11 -2zM183 709c-19 -10 -38 -21 -57 -31h115c-19 10 -39 21 -58 31zM167 874c19 10 38 21 57 31h-114c19 -10 38 -21 57 -31zM167 733c17 9 34 19 51 28v71c-12 6 -23 12 -35 18l-51 -27
v-71c12 -6 23 -13 35 -19zM198 717l73 -40c5 -3 13 -10 15 -16c2 -4 1 -6 -1 -6h-202c-4 0 -11 6 -16 13c-4 5 -4 9 -2 10l88 48l-26 14c-7 4 -16 14 -16 19v84c0 1 0 2 1 2l41 22l-74 39c-5 3 -13 11 -15 17c-2 4 0 5 2 5h201c4 0 11 -5 16 -12c4 -5 5 -10 3 -11l-88 -47
l26 -14c7 -4 15 -15 15 -20v-83c0 -1 1 -2 0 -2z" />
    <glyph glyph-name="period" unicode="." horiz-adv-x="108" 
d="M54 -7c-6 5 -11 13 -11 17v50c0 4 5 2 11 -3s11 -13 11 -17v-50c0 -4 -5 -2 -11 3z" />
    <glyph glyph-name="Oslash" unicode="&#xd8;" horiz-adv-x="270" 
d="M127 106c44 24 88 47 132 71v655l-18 10l-188 -696c25 -13 49 -27 74 -40zM127 918c42 23 84 45 126 68l1 2h-257c43 -23 87 -47 130 -70zM143 82c-42 -23 -84 -45 -126 -68l-1 -2h257c-43 23 -87 47 -130 70zM221 867l21 81l-85 -46zM-4 35l30 110l-21 11
c-5 3 -16 13 -16 20v667c0 1 0 2 1 2l123 66l-147 79c-3 2 -7 5 -10 9c-5 7 -8 13 -4 13h348c4 0 20 -15 20 -21c0 -1 0 -2 -1 -2l-45 -24l-30 -110l21 -11c5 -3 16 -13 16 -20v-667c0 -1 0 -2 -1 -2l-123 -66l147 -79c3 -2 7 -5 10 -9c5 -7 8 -13 4 -13h-348
c-4 0 -20 15 -20 21c0 1 0 2 1 2zM217 854c-25 13 -49 27 -74 40c-44 -24 -88 -47 -132 -71v-655l18 -10zM28 52l85 46l-64 35z" />
    <glyph glyph-name="macron" unicode="&#xaf;" horiz-adv-x="238" 
d="M178 1000c5 -6 5 -12 2 -12h-107c-3 0 -10 6 -15 12s-5 12 -2 12h107c3 0 10 -6 15 -12z" />
    <glyph glyph-name="at" unicode="@" horiz-adv-x="367" 
d="M175 752c43 23 87 47 130 70h-260c43 -23 87 -47 130 -70zM191 82c-43 -23 -87 -47 -130 -70h261c-43 23 -88 47 -131 70zM206 735l107 -58c5 -3 16 -13 16 -20v-333c0 -1 -1 -2 -1 -2l-55 -68c4 -4 12 -16 6 -16h-174c-4 0 -20 15 -20 21c0 1 0 2 1 2l75 40l-40 22
c-5 3 -16 13 -16 20v166c0 1 0 2 1 2l55 30l-60 32c-3 2 -7 5 -10 9c-5 7 -7 13 -3 13h173c4 0 20 -15 20 -21c0 -1 0 -2 -1 -2l-19 -10v-275l46 57v321c-39 21 -77 41 -116 62c-44 -24 -88 -47 -132 -71v-488c39 -21 77 -41 116 -62c44 24 89 48 133 72h1
c6 0 20 -15 20 -21c0 -1 0 -2 -1 -2l-122 -66l146 -79c3 -2 8 -5 11 -9c5 -7 7 -13 3 -13h-348c-4 0 -19 15 -19 21c0 1 0 2 1 2l161 87l-108 58c-5 3 -16 13 -16 20v500c0 1 0 2 1 2l123 66l-147 79c-3 2 -7 5 -10 9c-5 7 -7 13 -3 13h347c4 0 20 -15 20 -21
c0 -1 0 -2 -1 -2zM175 548c14 8 29 16 43 24h-86c14 -8 29 -16 43 -24zM191 285c-14 -8 -29 -15 -43 -23h87c-14 8 -30 15 -44 23zM240 551l-34 -19l34 -19v38zM240 274v37l-34 -19zM240 344v154c-16 9 -33 17 -49 26c-22 -12 -43 -23 -65 -35v-154c16 -9 33 -17 49 -26
c22 12 43 23 65 35z" />
    <glyph glyph-name="icircumflex" unicode="&#xee;" horiz-adv-x="103" 
d="M51 -7c-6 5 -11 13 -11 17v500c0 4 5 2 11 -3s11 -13 11 -17v-500c0 -4 -5 -2 -11 3zM7 739c0 -1 -1 -1 -2 -1c-6 0 -21 19 -18 23l53 83c3 4 16 -8 19 -13l53 -83c4 -6 4 -10 0 -9s-12 7 -16 13l-40 63z" />
    <glyph glyph-name="Adieresis" unicode="&#xc4;" horiz-adv-x="302" 
d="M15 -6c-6 5 -10 13 -10 16l135 1000c0 3 7 1 13 -5c5 -5 9 -11 9 -14l135 -1000c1 -4 -4 -4 -10 1s-11 13 -12 17l-64 479h-117l-67 -498c0 -3 -6 -1 -12 4zM84 1276c-6 5 -11 13 -11 17v50c0 4 5 2 11 -3s11 -12 11 -16v-50c0 -4 -5 -3 -11 2zM218 1276
c-6 5 -11 13 -11 17v50c0 4 5 2 11 -3s11 -12 11 -16v-50c0 -4 -5 -3 -11 2zM208 512l-56 408l-55 -408h111z" />
    <glyph glyph-name="adieresis" unicode="&#xe4;" horiz-adv-x="359" 
d="M167 418c43 23 87 47 130 70h-260c43 -23 87 -47 130 -70zM183 82c-43 -23 -87 -47 -130 -70h246v7c-39 21 -77 42 -116 63zM108 776c-6 5 -11 13 -11 17v50c0 4 5 2 11 -3s11 -12 11 -16v-50c0 -4 -5 -3 -11 2zM242 776c-6 5 -11 13 -11 17v50c0 4 5 2 11 -3
s11 -12 11 -16v-50c0 -4 -5 -3 -11 2zM-7 512h347c4 0 20 -15 20 -21c0 -1 0 -2 -1 -2l-38 -21v-445l23 -13c3 -2 8 -5 11 -9c5 -7 7 -13 3 -13h-348c-4 0 -20 15 -20 21c0 1 0 2 1 2l162 87l-108 58c-5 3 -16 13 -16 20v167c0 1 0 2 1 2l123 66l-147 79c-3 2 -7 5 -10 9
c-5 7 -7 13 -3 13zM299 347v110l-101 -55zM299 332c-39 21 -77 41 -116 62c-44 -24 -88 -47 -132 -71v-155c39 -21 77 -41 116 -62c44 24 88 47 132 71v155zM299 144l-101 -55l101 -54v109z" />
    <glyph glyph-name="circumflex" unicode="&#x2c6;" horiz-adv-x="238" 
d="M75 906c0 -1 -1 -1 -2 -1c-6 0 -22 18 -19 22l54 84c3 4 15 -8 18 -13l53 -84c4 -6 4 -10 0 -9s-11 8 -15 14l-41 63z" />
    <glyph glyph-name="comma" unicode="," horiz-adv-x="100" 
d="M69 55c6 -6 10 -12 9 -15l-43 -167c-1 -3 -6 -1 -12 5s-10 12 -9 15l42 167c1 3 7 1 13 -5z" />
    <glyph glyph-name="question" unicode="?" horiz-adv-x="335" 
d="M159 918c43 23 87 47 130 70h-260c43 -23 87 -47 130 -70zM190 902l107 -58c5 -3 16 -13 16 -20v-167c0 -1 -1 -1 -1 -1l-134 -166v-166c0 -4 -5 -2 -11 3s-11 12 -11 16v166c0 1 1 2 1 2l134 166v155c-39 21 -77 41 -116 62c-44 -24 -89 -48 -133 -72h-1
c-6 0 -20 15 -20 21c0 1 0 2 1 2l123 66l-147 79c-3 2 -7 5 -10 9c-5 7 -7 13 -3 13h347c4 0 20 -15 20 -21c0 -1 0 -2 -1 -2zM167 -7c-6 5 -11 13 -11 17v50c0 4 5 2 11 -3s11 -13 11 -17v-50c0 -4 -5 -2 -11 3z" />
    <glyph glyph-name="q" unicode="q" horiz-adv-x="359" 
d="M183 82c-43 -23 -87 -47 -130 -70h246v7c-39 21 -77 42 -116 63zM167 418c43 23 87 47 130 70h-260c43 -23 87 -47 130 -70zM183 394c-44 -24 -88 -47 -132 -71v-155c39 -21 77 -41 116 -62c44 24 88 47 132 71v155c-39 21 -77 41 -116 62zM-7 512h347c4 0 11 -6 16 -13
c4 -5 5 -9 3 -10l-38 -21v-445l23 -13c5 -3 13 -10 15 -16c2 -4 1 -6 -1 -6h-37v-498c0 -4 -5 -2 -11 3s-11 13 -11 17v478h-289c-4 0 -11 6 -16 13c-4 5 -5 9 -3 10l162 87l-108 58c-7 4 -16 15 -16 20v167c0 1 0 2 1 2l123 66l-147 79c-5 3 -13 10 -15 16c-2 4 0 6 2 6z
M299 144l-101 -55l101 -54v109zM299 457l-101 -55l101 -55v110z" />
    <glyph glyph-name="Ucircumflex" unicode="&#xdb;" horiz-adv-x="367" 
d="M191 82c-43 -23 -87 -47 -130 -70h261c-43 23 -88 47 -131 70zM48 1007c6 -5 11 -12 11 -16v-823c39 -21 77 -41 116 -62c44 24 88 47 132 71v832c0 4 5 3 11 -2s11 -12 11 -16v-834c0 -1 0 -2 -1 -2l-122 -66l146 -79c5 -3 13 -10 15 -16c2 -4 1 -6 -1 -6h-348
c-4 0 -11 6 -16 13c-4 5 -4 9 -2 10l161 87l-108 58c-7 4 -16 15 -16 20v833c0 4 5 3 11 -2zM140 1239c0 -1 -1 -1 -2 -1c-6 0 -22 19 -19 23l54 83c3 4 15 -8 18 -13l54 -83c4 -6 3 -10 -1 -9s-11 7 -15 13l-40 63z" />
    <glyph glyph-name="f" unicode="f" horiz-adv-x="135" 
d="M347 1011h1c6 0 20 -14 20 -20c0 -1 0 -2 -1 -2l-308 -166v-311h289c3 0 10 -6 15 -12s6 -12 3 -12h-307v-497c0 -4 -5 -3 -11 2s-11 12 -11 16v834c0 1 0 2 1 2z" />
    <glyph glyph-name="Atilde" unicode="&#xc3;" horiz-adv-x="302" 
d="M15 -6c-6 5 -10 13 -10 16l135 1000c0 3 7 1 13 -5c5 -5 9 -11 9 -14l135 -1000c1 -4 -4 -4 -10 1s-11 13 -12 17l-64 479h-117l-67 -498c0 -3 -6 -1 -12 4zM81 1239c0 -1 -1 -1 -2 -1c-6 0 -22 19 -19 23l54 83c3 4 15 -8 18 -13l40 -63l49 76c0 1 1 1 2 1
c6 0 22 -18 19 -22l-54 -84c-3 -5 -15 8 -18 13l-40 63zM208 512l-56 408l-55 -408h111z" />
    <glyph glyph-name="K" unicode="K" horiz-adv-x="343" 
d="M56 -7c-6 5 -11 13 -11 17v1000c0 4 5 2 11 -3s11 -13 11 -17v-440l249 461c0 1 1 1 2 1c6 0 22 -19 19 -23l-269 -498l267 -495c3 -6 2 -9 -3 -7s-12 9 -15 15l-250 463v-477c0 -4 -5 -2 -11 3z" />
    <glyph glyph-name="colon" unicode=":" horiz-adv-x="108" 
d="M54 -7c-6 5 -11 13 -11 17v50c0 4 5 2 11 -3s11 -13 11 -17v-50c0 -4 -5 -2 -11 3zM54 443c-6 5 -11 13 -11 17v50c0 4 5 2 11 -3s11 -13 11 -17v-50c0 -4 -5 -2 -11 3z" />
    <glyph glyph-name="perthousandzero" horiz-adv-x="181" 
d="M98 31c-12 -7 -25 -12 -37 -19h74c-12 7 -25 12 -37 19zM82 219c12 7 25 12 37 19h-74c12 -7 25 -12 37 -19zM82 56c24 13 47 25 71 38v71c-18 10 -37 19 -55 29c-24 -13 -47 -25 -71 -38v-71c18 -10 37 -19 55 -29zM112 39l54 -29c5 -3 12 -10 14 -16c2 -4 1 -6 -1 -6
h-161c-4 0 -11 6 -16 13c-4 5 -5 9 -3 10l68 37l-46 25c-7 4 -16 15 -16 20v83c0 1 0 2 1 2l61 33l-53 29c-5 3 -13 10 -15 16c-2 4 -1 6 1 6h162c4 0 10 -6 15 -13c4 -5 5 -9 3 -10l-68 -37l47 -25c7 -4 15 -15 15 -20v-83c0 -1 0 -2 -1 -2z" />
    <glyph glyph-name="zero" unicode="0" horiz-adv-x="367" 
d="M175 106c44 24 88 47 132 71v655c-39 21 -77 41 -116 62c-44 -24 -88 -47 -132 -71v-655c39 -21 77 -41 116 -62zM175 918c43 23 87 47 130 70h-260c43 -23 87 -47 130 -70zM191 82c-43 -23 -87 -47 -130 -70h261c-43 23 -88 47 -131 70zM206 902l107 -58
c5 -3 16 -13 16 -20v-667c0 -1 0 -2 -1 -2l-122 -66l146 -79c3 -2 8 -5 11 -9c5 -7 7 -13 3 -13h-348c-4 0 -19 15 -19 21c0 1 0 2 1 2l161 87l-108 58c-5 3 -16 13 -16 20v667c0 1 0 2 1 2l123 66l-147 79c-3 2 -7 5 -10 9c-5 7 -7 13 -3 13h347c4 0 20 -15 20 -21
c0 -1 0 -2 -1 -2z" />
    <glyph glyph-name="Edieresis" unicode="&#xcb;" horiz-adv-x="359" 
d="M65 -12c-4 0 -19 13 -19 21v1000c0 1 1 3 2 3h270c3 0 9 -6 14 -12s6 -12 3 -12h-268v-476h251c3 0 9 -6 14 -12s6 -12 3 -12h-268v-476h251c3 0 9 -6 14 -12s6 -12 3 -12h-270zM124 1276c-6 5 -11 13 -11 17v50c0 4 5 2 11 -3s11 -12 11 -16v-50c0 -4 -5 -3 -11 2z
M258 1276c-6 5 -11 13 -11 17v50c0 4 5 2 11 -3s11 -12 11 -16v-50c0 -4 -5 -3 -11 2z" />
    <glyph glyph-name="parenleft" unicode="(" horiz-adv-x="157" 
d="M347 1011h1c6 0 20 -14 20 -20c0 -1 0 -2 -1 -2l-308 -166v-821l293 -158c5 -3 12 -10 15 -16s0 -8 -5 -5l-309 167c-7 4 -16 14 -16 19v834c0 1 0 2 1 2z" />
    <glyph glyph-name="g" unicode="g" horiz-adv-x="359" 
d="M183 82c-43 -23 -87 -47 -130 -70h246v7c-39 21 -77 42 -116 63zM167 418c43 23 87 47 130 70h-260c43 -23 87 -47 130 -70zM183 394c-44 -24 -88 -47 -132 -71v-155c39 -21 77 -41 116 -62c44 24 88 47 132 71v155c-39 21 -77 41 -116 62zM183 -418
c-43 -23 -87 -47 -130 -70h261c-43 23 -88 47 -131 70zM153 -402l-108 58c-5 3 -11 10 -14 16s-1 8 4 5c44 -24 88 -47 132 -71c44 24 88 47 132 71v311h-289c-4 0 -11 6 -16 13c-4 5 -5 9 -3 10l162 87l-108 58c-7 4 -16 15 -16 20v167c0 1 0 2 1 2l123 66l-147 79
c-5 3 -13 10 -15 16c-2 4 0 6 2 6h347c4 0 11 -6 16 -13c4 -5 5 -9 3 -10l-38 -21v-445l23 -13c5 -3 13 -10 15 -16c2 -4 1 -6 -1 -6h-37v-331c0 -1 0 -2 -1 -2l-122 -66l146 -79c3 -2 8 -5 11 -9c5 -7 7 -13 3 -13h-348c-4 0 -20 15 -20 21c0 1 0 2 1 2zM299 457l-101 -55
l101 -55v110zM299 144l-101 -55l101 -55v110z" />
    <glyph glyph-name="S" unicode="S" horiz-adv-x="335" 
d="M159 918c43 23 87 47 130 70h-260c43 -23 87 -47 130 -70zM175 82c-43 -23 -87 -47 -130 -70h261c-43 23 -88 47 -131 70zM190 902l107 -58c5 -3 12 -10 15 -16s0 -8 -5 -5c-44 24 -88 47 -132 71c-44 -24 -88 -47 -132 -71v-162l265 -327c3 -3 5 -8 5 -10v-167
c0 -1 0 -2 -1 -2l-122 -66l146 -79c5 -3 13 -10 15 -16c2 -4 1 -6 -1 -6h-348c-4 0 -11 6 -16 13c-4 5 -5 9 -3 10l162 87l-108 58c-5 3 -11 10 -14 16s-1 8 4 5c44 -24 88 -47 132 -71c44 24 88 47 132 71v162l-264 327c-3 4 -6 8 -6 10v167c0 1 0 2 1 2l123 66l-147 79
c-3 2 -7 5 -10 9c-5 7 -7 13 -3 13h347c4 0 20 -15 20 -21c0 -1 0 -2 -1 -2z" />
    <glyph glyph-name="Abreve" unicode="&#x102;" horiz-adv-x="302" 
d="M15 -6c-6 5 -10 13 -10 16l135 1000c0 3 7 1 13 -5c5 -5 9 -11 9 -14l135 -1000c1 -4 -4 -4 -10 1s-11 13 -12 17l-64 479h-117l-67 -498c0 -3 -6 -1 -12 4zM159 1292l-57 -30h114zM143 1316c17 9 34 19 51 28v82c0 4 5 2 11 -3s10 -12 10 -16v-83c0 -1 0 -2 -1 -2
l-41 -22l74 -40c5 -3 13 -10 15 -16c2 -4 1 -6 -1 -6h-202c-4 0 -11 6 -16 13c-4 5 -5 9 -3 10l89 48l-27 14c-7 4 -15 15 -15 20v83c0 4 4 2 10 -3s11 -12 11 -16v-72c12 -6 23 -13 35 -19zM208 512l-56 408l-55 -408h111z" />
    <glyph glyph-name="Aring" unicode="&#xc5;" horiz-adv-x="302" 
d="M15 -6c-6 5 -10 13 -10 16l135 1000c0 3 7 1 13 -5c5 -5 9 -11 9 -14l135 -1000c1 -4 -4 -4 -10 1s-11 13 -12 17l-64 479h-117l-67 -498c0 -3 -6 -1 -12 4zM159 1209c-19 -10 -38 -21 -57 -31h114c-19 10 -38 21 -57 31zM143 1374c19 10 38 21 57 31h-114
c19 -10 38 -21 57 -31zM143 1233c17 9 34 19 51 28v71c-12 6 -23 12 -35 18l-51 -27v-71c12 -6 23 -13 35 -19zM173 1217l74 -40c5 -3 13 -10 15 -16c2 -4 1 -6 -1 -6h-202c-4 0 -11 6 -16 13c-4 5 -5 9 -3 10l89 48l-27 14c-7 4 -15 14 -15 19v84c0 1 0 2 1 2l41 22l-74 39
c-5 3 -13 11 -15 17c-2 4 0 5 2 5h201c4 0 11 -5 16 -12c4 -5 5 -10 3 -11l-89 -47l27 -14c7 -4 15 -15 15 -20v-83c0 -1 0 -2 -1 -2zM208 512l-56 408l-55 -408h111z" />
    <glyph glyph-name="tcaron" unicode="&#x165;" horiz-adv-x="194" 
d="M97 1007c6 -5 11 -13 11 -17v-478h61c3 0 10 -6 15 -12s5 -12 2 -12h-78v-498c0 -4 -5 -2 -11 3s-11 13 -11 17v478h-61c-3 0 -10 6 -15 12s-6 12 -3 12h79v498c0 4 5 2 11 -3zM188 1010c0 1 1 1 2 1c5 0 21 -18 20 -21l-43 -167c-1 -3 -6 -1 -12 5s-10 12 -9 15z" />
    <glyph glyph-name="exclam" unicode="!" horiz-adv-x="140" 
d="M70 -7c-6 5 -11 13 -11 17v50c0 4 5 2 11 -3s11 -13 11 -17v-50c0 -4 -5 -2 -11 3zM70 326c-6 5 -11 13 -11 17v667c0 4 5 2 11 -3s11 -13 11 -17v-666c0 -4 -5 -3 -11 2z" />
    <glyph glyph-name="emdash" unicode="&#x2014;" horiz-adv-x="389" 
d="M26 417c-5 6 -6 11 -3 11h325c3 0 10 -5 15 -11s5 -12 2 -12h-324c-3 0 -10 6 -15 12z" />
    <glyph glyph-name="Eacute" unicode="&#xc9;" horiz-adv-x="359" 
d="M65 -12c-4 0 -19 13 -19 21v1000c0 1 1 3 2 3h270c3 0 9 -6 14 -12s6 -12 3 -12h-268v-476h251c3 0 9 -6 14 -12s6 -12 3 -12h-268v-476h251c3 0 9 -6 14 -12s6 -12 3 -12h-270zM235 1344h2c6 0 19 -14 19 -20c0 -1 0 -2 -1 -2l-107 -83h-2c-6 0 -19 14 -19 20
c0 1 0 2 1 2z" />
    <glyph glyph-name="lcaron" unicode="&#x13e;" horiz-adv-x="154" 
d="M48 -7c-6 5 -11 13 -11 17v1000c0 4 5 2 11 -3s11 -13 11 -17v-1000c0 -4 -5 -2 -11 3zM159 1005c6 -6 10 -12 9 -15l-49 -125c-1 -3 -6 -1 -12 5s-10 12 -9 15l49 125c1 3 6 1 12 -5z" />
    <glyph glyph-name="I" unicode="I" horiz-adv-x="113" 
d="M56 -7c-6 5 -11 13 -11 17v1000c0 4 5 2 11 -3s11 -13 11 -17v-1000c0 -4 -5 -2 -11 3z" />
    <glyph glyph-name="AE" unicode="&#xc6;" horiz-adv-x="540" 
d="M279 -12c-4 0 -20 13 -20 21v479h-114l-134 -498c0 -1 -1 -1 -2 -1c-5 0 -21 18 -20 21l270 1000c0 1 1 2 2 2h270c3 0 10 -6 15 -12s6 -12 3 -12h-268v-476h250c3 0 10 -6 15 -12s6 -12 3 -12h-268v-476h250c3 0 10 -6 15 -12s6 -12 3 -12h-270zM259 512v399l-108 -399
h108z" />
    <glyph glyph-name="space" unicode=" " horiz-adv-x="161" 
 />
    </font>
</defs>
</svg>
